<svg width="40" height="40" viewBox="0 0 40 40" fill="none" xmlns="http://www.w3.org/2000/svg">
<rect x="0.5" y="0.5" width="39" height="39" rx="19.5" stroke="white"/>
<path d="M11.6667 15.8333L18.4708 20.5961C19.0217 20.9818 19.2972 21.1746 19.5969 21.2493C19.8616 21.3153 20.1384 21.3153 20.4031 21.2493C20.7028 21.1746 20.9783 20.9818 21.5292 20.5961L28.3333 15.8333M15.6667 26.6666H24.3333C25.7335 26.6666 26.4335 26.6666 26.9683 26.3941C27.4387 26.1544 27.8212 25.772 28.0609 25.3016C28.3333 24.7668 28.3333 24.0667 28.3333 22.6666V17.3333C28.3333 15.9331 28.3333 15.2331 28.0609 14.6983C27.8212 14.2279 27.4387 13.8454 26.9683 13.6057C26.4335 13.3333 25.7335 13.3333 24.3333 13.3333H15.6667C14.2665 13.3333 13.5665 13.3333 13.0317 13.6057C12.5613 13.8454 12.1788 14.2279 11.9392 14.6983C11.6667 15.2331 11.6667 15.9331 11.6667 17.3333V22.6666C11.6667 24.0667 11.6667 24.7668 11.9392 25.3016C12.1788 25.772 12.5613 26.1544 13.0317 26.3941C13.5665 26.6666 14.2665 26.6666 15.6667 26.6666Z" stroke="white" stroke-width="2" stroke-linecap="round" stroke-linejoin="round"/>
</svg>
