<svg width="40" height="40" viewBox="0 0 40 40" fill="none" xmlns="http://www.w3.org/2000/svg">
<rect x="0.5" y="0.5" width="39" height="39" rx="19.5" stroke="white"/>
<path d="M16.9836 17.3778C17.5636 18.5858 18.3542 19.718 19.3555 20.7193C20.3568 21.7206 21.4891 22.5113 22.6971 23.0913C22.801 23.1412 22.8529 23.1661 22.9187 23.1853C23.1523 23.2534 23.4392 23.2045 23.637 23.0628C23.6927 23.0229 23.7403 22.9753 23.8356 22.88C24.1269 22.5887 24.2726 22.443 24.4191 22.3478C24.9715 21.9886 25.6837 21.9886 26.2361 22.3478C26.3825 22.443 26.5282 22.5887 26.8196 22.88L26.9819 23.0424C27.4248 23.4853 27.6462 23.7067 27.7665 23.9446C28.0058 24.4175 28.0058 24.9761 27.7665 25.449C27.6462 25.6869 27.4248 25.9083 26.9819 26.3512L26.8506 26.4825C26.4092 26.9239 26.1886 27.1446 25.8885 27.3131C25.5556 27.5001 25.0385 27.6346 24.6567 27.6334C24.3126 27.6324 24.0774 27.5657 23.607 27.4322C21.0792 26.7147 18.6939 25.361 16.7039 23.371C14.7139 21.381 13.3602 18.9957 12.6427 16.4679C12.5092 15.9975 12.4424 15.7623 12.4414 15.4182C12.4403 15.0363 12.5747 14.5193 12.7618 14.1863C12.9303 13.8863 13.151 13.6656 13.5923 13.2243L13.7237 13.0929C14.1666 12.65 14.388 12.4286 14.6258 12.3083C15.0988 12.0691 15.6573 12.0691 16.1303 12.3083C16.3681 12.4286 16.5896 12.65 17.0324 13.0929L17.1948 13.2553C17.4862 13.5466 17.6318 13.6923 17.7271 13.8388C18.0862 14.3912 18.0862 15.1034 17.7271 15.6558C17.6318 15.8022 17.4862 15.9479 17.1948 16.2393C17.0996 16.3345 17.0519 16.3821 17.0121 16.4378C16.8704 16.6357 16.8215 16.9226 16.8896 17.1562C16.9087 17.2219 16.9337 17.2739 16.9836 17.3778Z" stroke="white" stroke-width="2" stroke-linecap="round" stroke-linejoin="round"/>
</svg>
