<svg width="54" height="54" viewBox="0 0 54 54" fill="none" xmlns="http://www.w3.org/2000/svg">
<circle cx="27" cy="27" r="27" fill="white"/>
<g clip-path="url(#clip0_0_4203)">
<path d="M36.3374 24.8882C36.3689 21.1845 33.2144 17.7891 29.3054 17.3196C29.2277 17.3103 29.143 17.2963 29.0533 17.2815C28.8598 17.2494 28.6597 17.2164 28.4578 17.2164C27.6566 17.2164 27.4424 17.7792 27.3861 18.1148C27.3312 18.4412 27.3835 18.7152 27.5412 18.9297C27.8066 19.2905 28.2734 19.3545 28.6483 19.4058C28.7582 19.421 28.8619 19.4351 28.9487 19.4546C32.4608 20.2394 33.6434 21.4732 34.2213 24.9554C34.2354 25.0405 34.2418 25.1453 34.2486 25.2565C34.2738 25.6728 34.3263 26.5388 35.2574 26.5388H35.2574C35.3349 26.5388 35.4182 26.5321 35.505 26.5189C36.372 26.3871 36.3448 25.5955 36.3317 25.2152C36.3281 25.108 36.3246 25.0067 36.3336 24.9393C36.3361 24.9223 36.3373 24.9053 36.3374 24.8882Z" fill="url(#paint0_linear_0_4203)"/>
<path d="M28.2297 15.96C28.3337 15.9675 28.4322 15.9747 28.5142 15.9873C34.2813 16.8742 36.9336 19.6066 37.6686 25.4189C37.6811 25.5177 37.683 25.6382 37.685 25.7657C37.6924 26.2199 37.7075 27.1645 38.722 27.1841L38.7535 27.1844C39.0717 27.1844 39.3247 27.0885 39.5058 26.899C39.8216 26.5687 39.7996 26.078 39.7818 25.6836C39.7775 25.5868 39.7733 25.4957 39.7744 25.4159C39.8477 19.4715 34.7021 14.0811 28.763 13.8807C28.7384 13.8798 28.7149 13.8811 28.6912 13.8845C28.6795 13.8862 28.6579 13.8883 28.6208 13.8883C28.5616 13.8883 28.4887 13.8832 28.4115 13.878C28.3181 13.8716 28.2122 13.8643 28.1048 13.8643C27.159 13.8643 26.9792 14.5365 26.9562 14.9373C26.9031 15.8634 27.7991 15.9286 28.2297 15.96Z" fill="url(#paint1_linear_0_4203)"/>
<path d="M37.3903 32.9308C37.2677 32.8371 37.1409 32.7402 37.0222 32.6446C36.3925 32.1379 35.7226 31.6708 35.0748 31.2191C34.9403 31.1254 34.8059 31.0317 34.6719 30.9377C33.842 30.3548 33.0959 30.0715 32.391 30.0715C31.4416 30.0715 30.6139 30.5961 29.9307 31.6305C29.628 32.0891 29.2608 32.3121 28.8082 32.3121C28.5407 32.3121 28.2366 32.2357 27.9046 32.085C25.2259 30.8703 23.3132 29.0079 22.2194 26.5495C21.6906 25.3613 21.862 24.5846 22.7926 23.9525C23.321 23.5938 24.3046 22.9261 24.2349 21.6475C24.156 20.1956 20.9524 15.8268 19.6026 15.3306C19.0311 15.1204 18.4306 15.1185 17.8146 15.3257C16.2629 15.8474 15.1493 16.7635 14.5941 17.9749C14.0575 19.1453 14.0817 20.5197 14.6642 21.9494C16.3479 26.083 18.7152 29.6869 21.7004 32.6609C24.6225 35.5722 28.2139 37.9569 32.3749 39.7486C32.7499 39.91 33.1433 39.998 33.4306 40.0622C33.5285 40.0842 33.613 40.103 33.6746 40.1199C33.7085 40.1291 33.7434 40.1341 33.7784 40.1344L33.8113 40.1346C33.8113 40.1346 33.8113 40.1346 33.8114 40.1346C35.7685 40.1346 38.1184 38.3462 38.8401 36.3074C39.4723 34.5222 38.3179 33.6398 37.3903 32.9308Z" fill="url(#paint2_linear_0_4203)"/>
<path d="M29.0957 20.6817C28.7606 20.6902 28.0633 20.7075 27.8186 21.4177C27.7042 21.7496 27.7179 22.0378 27.8594 22.2742C28.0671 22.6211 28.4651 22.7274 28.8271 22.7857C30.1399 22.9964 30.8141 23.7223 30.949 25.0701C31.0116 25.6985 31.4348 26.1374 31.9782 26.1374C32.0183 26.1374 32.0594 26.135 32.1003 26.1301C32.7538 26.0523 33.0706 25.5722 33.0419 24.7031C33.0524 23.7962 32.5777 22.7665 31.7704 21.9463C30.9604 21.1236 29.9839 20.6603 29.0957 20.6817Z" fill="url(#paint3_linear_0_4203)"/>
</g>
<defs>
<linearGradient id="paint0_linear_0_4203" x1="26.8322" y1="13.6373" x2="31.4635" y2="29.3032" gradientUnits="userSpaceOnUse">
<stop stop-color="#75E1FF"/>
<stop offset="0.24" stop-color="#5CD8F2"/>
<stop offset="0.75" stop-color="#1FC1D3"/>
<stop offset="1" stop-color="#00B6C3"/>
</linearGradient>
<linearGradient id="paint1_linear_0_4203" x1="26.1917" y1="8.75026" x2="32.802" y2="31.1389" gradientUnits="userSpaceOnUse">
<stop stop-color="#75E1FF"/>
<stop offset="0.24" stop-color="#5CD8F2"/>
<stop offset="0.75" stop-color="#1FC1D3"/>
<stop offset="1" stop-color="#00B6C3"/>
</linearGradient>
<linearGradient id="paint2_linear_0_4203" x1="12.7355" y1="5.58765" x2="24.8044" y2="47.7482" gradientUnits="userSpaceOnUse">
<stop stop-color="#75E1FF"/>
<stop offset="0.24" stop-color="#5CD8F2"/>
<stop offset="0.75" stop-color="#1FC1D3"/>
<stop offset="1" stop-color="#00B6C3"/>
</linearGradient>
<linearGradient id="paint3_linear_0_4203" x1="27.4272" y1="18.5862" x2="30.1163" y2="27.7693" gradientUnits="userSpaceOnUse">
<stop stop-color="#75E1FF"/>
<stop offset="0.24" stop-color="#5CD8F2"/>
<stop offset="0.75" stop-color="#1FC1D3"/>
<stop offset="1" stop-color="#00B6C3"/>
</linearGradient>
<clipPath id="clip0_0_4203">
<rect width="26.2703" height="26.2703" fill="white" transform="translate(13.865 13.8643)"/>
</clipPath>
</defs>
</svg>
