<svg width="42" height="46" viewBox="0 0 42 46" fill="none" xmlns="http://www.w3.org/2000/svg">
<path fill-rule="evenodd" clip-rule="evenodd" d="M13.549 41.724C9.68233 40.6389 5.63406 40.0915 1.70698 39.59C0.861143 39.4849 0.0758438 40.0716 0.0154272 40.8981C-0.105406 41.7252 0.499115 42.4816 1.28453 42.5867C5.09078 43.0694 9.01751 43.586 12.7029 44.6306C13.4883 44.8572 14.3345 44.3908 14.5762 43.5884C14.8179 42.7867 14.3344 41.9511 13.549 41.724Z" fill="#F4A109"/>
<path fill-rule="evenodd" clip-rule="evenodd" d="M25.2693 26.3401C19.0464 19.9897 12.0381 14.4567 5.936 7.93594C5.39225 7.32694 4.42558 7.29431 3.82141 7.86283C3.21725 8.43196 3.15707 9.38895 3.76123 9.99795C9.86332 16.5375 16.8717 22.0885 23.0946 28.4577C23.6987 29.0522 24.6652 29.0606 25.2693 28.4758C25.8131 27.8916 25.8735 26.9346 25.2693 26.3401Z" fill="#F4A109"/>
<path fill-rule="evenodd" clip-rule="evenodd" d="M36.9312 1.91422C37.1124 5.54888 37.2933 9.18355 37.4745 12.8188C37.4745 13.6514 38.1999 14.2942 39.0457 14.2537C39.8916 14.2126 40.4954 13.5039 40.4954 12.6708C40.3141 9.03009 40.1332 5.38998 39.952 1.74988C39.8916 0.917339 39.1665 0.278735 38.3206 0.324047C37.5352 0.36936 36.8707 1.08228 36.9312 1.91422Z" fill="#F4A109"/>
</svg>
