<svg width="551" height="375" viewBox="0 0 551 375" fill="none" xmlns="http://www.w3.org/2000/svg">
<rect x="0.5" y="62.5" width="550" height="312" rx="9.5" fill="url(#paint0_linear_0_279)" stroke="white"/>
<rect x="38" y="5.14551" width="475" height="340" rx="13" fill="white" stroke="white" stroke-width="10"/>
<rect x="411" y="108.146" width="86" height="4" rx="2" fill="url(#paint1_linear_0_279)"/>
<rect x="411" y="126.146" width="86" height="4" rx="2" fill="url(#paint2_linear_0_279)"/>
<rect x="411" y="141.146" width="58" height="4" rx="2" fill="url(#paint3_linear_0_279)"/>
<rect x="411" y="156.146" width="58" height="4" rx="2" fill="url(#paint4_linear_0_279)"/>
<rect x="411" y="171.146" width="80" height="4" rx="2" fill="url(#paint5_linear_0_279)"/>
<rect x="51" y="20.1455" width="95" height="305" rx="4" fill="url(#paint6_linear_0_279)"/>
<rect x="392" y="293.146" width="105" height="32" rx="6" fill="#00AFCC"/>
<rect x="397" y="304.146" width="61" height="11" rx="5.5" fill="url(#paint7_linear_0_279)"/>
<path fill-rule="evenodd" clip-rule="evenodd" d="M474.41 301.729H478.4C480.394 301.729 482.021 303.312 482.021 305.244V314.047C482.021 315.987 480.394 317.562 478.383 317.562H474.402C472.407 317.562 470.772 315.987 470.772 314.055V310.255H475.841L474.533 311.522C474.288 311.759 474.288 312.147 474.533 312.385C474.655 312.503 474.819 312.559 474.982 312.559C475.138 312.559 475.301 312.503 475.424 312.385L477.811 310.081C477.934 309.97 477.999 309.812 477.999 309.645C477.999 309.487 477.934 309.329 477.811 309.218L475.424 306.914C475.179 306.677 474.778 306.677 474.533 306.914C474.288 307.152 474.288 307.54 474.533 307.777L475.841 309.036H470.772V305.252C470.772 303.312 472.407 301.729 474.41 301.729ZM466.979 309.645C466.979 309.313 467.261 309.036 467.598 309.036H470.772V310.255H467.598C467.261 310.255 466.979 309.986 466.979 309.645Z" fill="white"/>
<g filter="url(#filter0_d_0_279)">
<rect x="409" y="20.1455" width="84.3035" height="65" rx="6" fill="#FFDC60"/>
</g>
<path fill-rule="evenodd" clip-rule="evenodd" d="M458.059 46.2687C458.059 50.246 454.919 53.4351 451 53.4351C447.083 53.4351 443.941 50.246 443.941 46.2687C443.941 42.2915 447.083 39.1038 451 39.1038C454.919 39.1038 458.059 42.2915 458.059 46.2687ZM451 66.1871C445.216 66.1871 440.333 65.2324 440.333 61.549C440.333 57.8643 445.247 56.9435 451 56.9435C456.785 56.9435 461.666 57.8982 461.666 61.5815C461.666 65.2663 456.752 66.1871 451 66.1871Z" fill="white"/>
<g filter="url(#filter1_d_0_279)">
<rect x="158" y="20.1455" width="224" height="63.2736" rx="6" fill="#00AFCC"/>
</g>
<rect x="181.334" y="45.4541" width="177.333" height="12.6547" rx="6" fill="white"/>
<rect x="158" y="100.146" width="224" height="37" rx="3" fill="#D7F6FC"/>
<rect x="158.771" y="100.917" width="222.458" height="35.4575" rx="2.22876" stroke="white" stroke-opacity="0.2" stroke-width="1.54248"/>
<rect opacity="0.5" x="168" y="105.184" width="26.923" height="26.923" rx="2" fill="#00AFCC"/>
<rect x="206.923" y="113.311" width="165.077" height="10.6688" rx="5.33442" fill="url(#paint8_linear_0_279)"/>
<rect x="158" y="145.146" width="224" height="37" rx="3" fill="#F9EDE3"/>
<rect x="158.771" y="145.917" width="222.458" height="35.4575" rx="2.22876" stroke="white" stroke-opacity="0.2" stroke-width="1.54248"/>
<rect opacity="0.5" x="168" y="150.184" width="26.923" height="26.923" rx="2" fill="white"/>
<rect x="206.923" y="158.311" width="165.077" height="10.6688" rx="5.33442" fill="url(#paint9_linear_0_279)"/>
<rect x="158" y="190.146" width="224" height="37" rx="3" fill="#D7F6FC"/>
<rect x="158.771" y="190.917" width="222.458" height="35.4575" rx="2.22876" stroke="white" stroke-opacity="0.2" stroke-width="1.54248"/>
<rect opacity="0.5" x="168" y="195.184" width="26.923" height="26.923" rx="2" fill="#00AFCC"/>
<rect x="206.923" y="203.311" width="165.077" height="10.6688" rx="5.33442" fill="url(#paint10_linear_0_279)"/>
<rect x="158" y="235.146" width="224" height="37" rx="3" fill="#F9EDE3"/>
<rect x="158.771" y="235.917" width="222.458" height="35.4575" rx="2.22876" stroke="white" stroke-opacity="0.2" stroke-width="1.54248"/>
<rect opacity="0.5" x="168" y="240.184" width="26.923" height="26.923" rx="2" fill="white"/>
<rect x="206.923" y="248.311" width="165.077" height="10.6688" rx="5.33442" fill="url(#paint11_linear_0_279)"/>
<rect x="158" y="280.146" width="224" height="37" rx="3" fill="#D7F6FC"/>
<rect x="158.771" y="280.917" width="222.458" height="35.4575" rx="2.22876" stroke="white" stroke-opacity="0.2" stroke-width="1.54248"/>
<rect opacity="0.5" x="168" y="285.184" width="26.923" height="26.923" rx="2" fill="#00AFCC"/>
<rect x="206.923" y="293.311" width="165.077" height="10.6688" rx="5.33442" fill="url(#paint12_linear_0_279)"/>
<defs>
<filter id="filter0_d_0_279" x="389" y="6.14551" width="124.303" height="105" filterUnits="userSpaceOnUse" color-interpolation-filters="sRGB">
<feFlood flood-opacity="0" result="BackgroundImageFix"/>
<feColorMatrix in="SourceAlpha" type="matrix" values="0 0 0 0 0 0 0 0 0 0 0 0 0 0 0 0 0 0 127 0" result="hardAlpha"/>
<feOffset dy="6"/>
<feGaussianBlur stdDeviation="10"/>
<feColorMatrix type="matrix" values="0 0 0 0 0.11 0 0 0 0 0.14137 0 0 0 0 0.4125 0 0 0 0.05 0"/>
<feBlend mode="normal" in2="BackgroundImageFix" result="effect1_dropShadow_0_279"/>
<feBlend mode="normal" in="SourceGraphic" in2="effect1_dropShadow_0_279" result="shape"/>
</filter>
<filter id="filter1_d_0_279" x="138" y="6.14551" width="264" height="103.274" filterUnits="userSpaceOnUse" color-interpolation-filters="sRGB">
<feFlood flood-opacity="0" result="BackgroundImageFix"/>
<feColorMatrix in="SourceAlpha" type="matrix" values="0 0 0 0 0 0 0 0 0 0 0 0 0 0 0 0 0 0 127 0" result="hardAlpha"/>
<feOffset dy="6"/>
<feGaussianBlur stdDeviation="10"/>
<feColorMatrix type="matrix" values="0 0 0 0 0.11 0 0 0 0 0.14137 0 0 0 0 0.4125 0 0 0 0.05 0"/>
<feBlend mode="normal" in2="BackgroundImageFix" result="effect1_dropShadow_0_279"/>
<feBlend mode="normal" in="SourceGraphic" in2="effect1_dropShadow_0_279" result="shape"/>
</filter>
<linearGradient id="paint0_linear_0_279" x1="275.5" y1="62" x2="275.5" y2="375" gradientUnits="userSpaceOnUse">
<stop stop-color="#5DC8DA" stop-opacity="0.42"/>
<stop offset="1" stop-color="#0CCBEB" stop-opacity="0.64"/>
</linearGradient>
<linearGradient id="paint1_linear_0_279" x1="411" y1="110.146" x2="497" y2="110.146" gradientUnits="userSpaceOnUse">
<stop stop-color="#00AFCC"/>
<stop offset="1" stop-color="#7AECFF"/>
</linearGradient>
<linearGradient id="paint2_linear_0_279" x1="411" y1="128.146" x2="497" y2="128.146" gradientUnits="userSpaceOnUse">
<stop stop-color="#00AFCC"/>
<stop offset="1" stop-color="#7AECFF"/>
</linearGradient>
<linearGradient id="paint3_linear_0_279" x1="411" y1="143.146" x2="469" y2="143.146" gradientUnits="userSpaceOnUse">
<stop stop-color="#00AFCC"/>
<stop offset="1" stop-color="#7AECFF"/>
</linearGradient>
<linearGradient id="paint4_linear_0_279" x1="411" y1="158.146" x2="469" y2="158.146" gradientUnits="userSpaceOnUse">
<stop stop-color="#00AFCC"/>
<stop offset="1" stop-color="#7AECFF"/>
</linearGradient>
<linearGradient id="paint5_linear_0_279" x1="411" y1="173.146" x2="491" y2="173.146" gradientUnits="userSpaceOnUse">
<stop stop-color="#00AFCC"/>
<stop offset="1" stop-color="#7AECFF"/>
</linearGradient>
<linearGradient id="paint6_linear_0_279" x1="98.5" y1="20.1455" x2="98.5" y2="325.146" gradientUnits="userSpaceOnUse">
<stop stop-color="#F9EDE3"/>
<stop offset="1" stop-color="#EEE2D7"/>
</linearGradient>
<linearGradient id="paint7_linear_0_279" x1="397" y1="309.646" x2="458" y2="309.646" gradientUnits="userSpaceOnUse">
<stop stop-color="#00AFCC"/>
<stop offset="1" stop-color="#7AECFF"/>
</linearGradient>
<linearGradient id="paint8_linear_0_279" x1="206.923" y1="118.645" x2="372" y2="118.645" gradientUnits="userSpaceOnUse">
<stop stop-color="#00AFCC"/>
<stop offset="1" stop-color="#7AECFF"/>
</linearGradient>
<linearGradient id="paint9_linear_0_279" x1="206.923" y1="163.645" x2="372" y2="163.645" gradientUnits="userSpaceOnUse">
<stop stop-color="#E1C3A9"/>
<stop offset="1" stop-color="#D4CEE3"/>
</linearGradient>
<linearGradient id="paint10_linear_0_279" x1="206.923" y1="208.645" x2="372" y2="208.645" gradientUnits="userSpaceOnUse">
<stop stop-color="#00AFCC"/>
<stop offset="1" stop-color="#7AECFF"/>
</linearGradient>
<linearGradient id="paint11_linear_0_279" x1="206.923" y1="253.645" x2="372" y2="253.645" gradientUnits="userSpaceOnUse">
<stop stop-color="#E1C3A9"/>
<stop offset="1" stop-color="#D4CEE3"/>
</linearGradient>
<linearGradient id="paint12_linear_0_279" x1="206.923" y1="298.645" x2="372" y2="298.645" gradientUnits="userSpaceOnUse">
<stop stop-color="#00AFCC"/>
<stop offset="1" stop-color="#7AECFF"/>
</linearGradient>
</defs>
</svg>
