<svg width="452" height="365" viewBox="0 0 452 365" fill="none" xmlns="http://www.w3.org/2000/svg">
<rect x="70.3596" y="76.8633" width="381.409" height="287.179" rx="6" fill="url(#paint0_linear_0_334)"/>
<rect x="207.218" y="321.413" width="35.8974" height="13.4615" rx="6" fill="#B4B6C4"/>
<rect x="279.013" y="321.413" width="35.8974" height="13.4615" rx="6" fill="#B4B6C4"/>
<rect x="350.807" y="321.413" width="35.8974" height="13.4615" rx="6" fill="#B4B6C4"/>
<rect x="135.424" y="321.413" width="35.8974" height="13.4615" rx="6" fill="#B4B6C4"/>
<rect x="135.424" y="218.211" width="35.8974" height="80.7691" fill="#00AFCC"/>
<rect x="279.013" y="209.237" width="35.8974" height="89.7434" fill="#00AFCC"/>
<rect x="350.808" y="164.364" width="35.8974" height="134.615" fill="#FFDC60"/>
<rect x="207.219" y="180.068" width="35.8974" height="118.91" fill="#FFDC60"/>
<path d="M369.396 175.048C369.025 175.357 368.487 175.357 368.116 175.048L346.077 156.682C344.64 155.485 345.487 153.146 347.357 153.146L390.155 153.146C392.026 153.146 392.872 155.485 391.435 156.682L369.396 175.048Z" fill="#00AFCC"/>
<rect x="290.23" y="90.3252" width="157.051" height="76.2819" rx="4" fill="#00AFCC"/>
<rect opacity="0.4" x="308.179" y="144.172" width="62.8204" height="6.73075" rx="3" fill="white"/>
<path d="M313.401 115.787V113.337H308.865V112.189C308.986 112.002 309.145 111.736 309.341 111.391C309.537 111.046 309.747 110.649 309.971 110.201C310.204 109.753 310.433 109.286 310.657 108.801C310.881 108.306 311.091 107.821 311.287 107.345C311.492 106.869 311.66 106.435 311.791 106.043H313.135C313.023 106.463 312.869 106.916 312.673 107.401C312.477 107.877 312.262 108.358 312.029 108.843C311.805 109.319 311.567 109.776 311.315 110.215C311.072 110.654 310.839 111.046 310.615 111.391C310.391 111.727 310.185 111.998 309.999 112.203H313.401V109.333C313.466 109.23 313.536 109.1 313.611 108.941C313.695 108.773 313.774 108.605 313.849 108.437C313.933 108.26 314.007 108.092 314.073 107.933C314.147 107.765 314.199 107.62 314.227 107.499H314.801V112.203H316.019V113.337H314.801V115.787H313.401ZM320.964 115.927C320.367 115.927 319.825 115.792 319.34 115.521C318.855 115.241 318.467 114.858 318.178 114.373C317.898 113.888 317.758 113.328 317.758 112.693V109.277C317.758 108.642 317.898 108.082 318.178 107.597C318.467 107.112 318.855 106.734 319.34 106.463C319.825 106.183 320.367 106.043 320.964 106.043H321.23C321.837 106.043 322.378 106.183 322.854 106.463C323.339 106.734 323.722 107.112 324.002 107.597C324.282 108.082 324.422 108.642 324.422 109.277V112.693C324.422 113.328 324.282 113.888 324.002 114.373C323.722 114.858 323.339 115.241 322.854 115.521C322.378 115.792 321.837 115.927 321.23 115.927H320.964ZM321.09 114.807C321.454 114.807 321.781 114.723 322.07 114.555C322.359 114.378 322.583 114.144 322.742 113.855C322.91 113.566 322.994 113.239 322.994 112.875V109.095C322.994 108.722 322.91 108.39 322.742 108.101C322.583 107.812 322.359 107.583 322.07 107.415C321.781 107.247 321.454 107.163 321.09 107.163C320.726 107.163 320.399 107.247 320.11 107.415C319.83 107.583 319.606 107.812 319.438 108.101C319.27 108.39 319.186 108.722 319.186 109.095V112.875C319.186 113.239 319.27 113.566 319.438 113.855C319.606 114.144 319.83 114.378 320.11 114.555C320.399 114.723 320.726 114.807 321.09 114.807ZM326.931 115.787L332.769 106.183H333.763L327.939 115.787H326.931ZM327.533 111.083C327.207 111.083 326.917 111.008 326.665 110.859C326.413 110.7 326.213 110.49 326.063 110.229C325.923 109.968 325.853 109.683 325.853 109.375V107.877C325.853 107.569 325.923 107.289 326.063 107.037C326.213 106.776 326.413 106.57 326.665 106.421C326.917 106.262 327.207 106.183 327.533 106.183H327.659C328.005 106.183 328.299 106.262 328.541 106.421C328.793 106.57 328.989 106.776 329.129 107.037C329.279 107.289 329.353 107.569 329.353 107.877V109.375C329.353 109.683 329.279 109.968 329.129 110.229C328.989 110.49 328.793 110.7 328.541 110.859C328.299 111.008 328.009 111.083 327.673 111.083H327.533ZM327.603 110.313C327.874 110.313 328.079 110.234 328.219 110.075C328.359 109.916 328.429 109.716 328.429 109.473V107.779C328.429 107.546 328.359 107.35 328.219 107.191C328.079 107.032 327.874 106.953 327.603 106.953C327.351 106.953 327.151 107.032 327.001 107.191C326.852 107.35 326.777 107.546 326.777 107.779V109.473C326.777 109.716 326.852 109.916 327.001 110.075C327.151 110.234 327.351 110.313 327.603 110.313ZM332.993 115.801C332.667 115.801 332.377 115.726 332.125 115.577C331.873 115.418 331.673 115.208 331.523 114.947C331.383 114.686 331.313 114.401 331.313 114.093V112.595C331.313 112.287 331.383 112.007 331.523 111.755C331.673 111.494 331.873 111.288 332.125 111.139C332.377 110.98 332.667 110.901 332.993 110.901H333.119C333.465 110.901 333.759 110.98 334.001 111.139C334.253 111.288 334.449 111.494 334.589 111.755C334.739 112.007 334.813 112.287 334.813 112.595V114.093C334.813 114.401 334.739 114.686 334.589 114.947C334.449 115.208 334.253 115.418 334.001 115.577C333.759 115.726 333.469 115.801 333.133 115.801H332.993ZM333.063 115.031C333.334 115.031 333.539 114.952 333.679 114.793C333.819 114.625 333.889 114.424 333.889 114.191V112.497C333.889 112.264 333.819 112.068 333.679 111.909C333.539 111.75 333.334 111.671 333.063 111.671C332.811 111.671 332.611 111.75 332.461 111.909C332.312 112.068 332.237 112.264 332.237 112.497V114.191C332.237 114.424 332.312 114.625 332.461 114.793C332.611 114.952 332.811 115.031 333.063 115.031Z" fill="white"/>
<circle cx="413.628" cy="126.221" r="15.7051" fill="white"/>
<path d="M414.779 122.279C414.187 121.645 413.068 121.645 412.475 122.279L406.598 128.555C405.815 129.392 406.504 130.638 407.75 130.638L419.505 130.638C420.751 130.638 421.44 129.392 420.657 128.555L414.779 122.279Z" fill="#38E7B2"/>
<g filter="url(#filter0_d_0_334)">
<rect x="34.4617" y="14.042" width="130.128" height="130.128" rx="6" fill="white"/>
<rect x="34.9617" y="14.542" width="129.128" height="129.128" rx="5.5" stroke="#00AFCC" stroke-opacity="0.2"/>
<path d="M21 109.394C21 109.394 37.4157 83.6246 54.6538 80.2273C71.8918 76.83 70.7795 101.541 80.455 95.9324C90.1305 90.3234 94.6154 60.4995 106.256 54.4261C119.157 47.6953 124.379 81.1679 138.788 70.1312C156.363 56.6696 183.66 58.9133 183.66 58.9133" stroke="#008AA0" stroke-width="2" stroke-linecap="round" stroke-linejoin="round"/>
<rect opacity="0.5" x="50.1665" y="29.7458" width="26.923" height="26.923" rx="2" fill="#00AFCC"/>
<rect opacity="0.4" x="110.743" y="112.76" width="35.8974" height="13.4615" rx="6" fill="#FFDC60"/>
</g>
<defs>
<filter id="filter0_d_0_334" x="-0.00012207" y="0.0419922" width="204.66" height="170.128" filterUnits="userSpaceOnUse" color-interpolation-filters="sRGB">
<feFlood flood-opacity="0" result="BackgroundImageFix"/>
<feColorMatrix in="SourceAlpha" type="matrix" values="0 0 0 0 0 0 0 0 0 0 0 0 0 0 0 0 0 0 127 0" result="hardAlpha"/>
<feOffset dy="6"/>
<feGaussianBlur stdDeviation="10"/>
<feColorMatrix type="matrix" values="0 0 0 0 0.11 0 0 0 0 0.14137 0 0 0 0 0.4125 0 0 0 0.05 0"/>
<feBlend mode="normal" in2="BackgroundImageFix" result="effect1_dropShadow_0_334"/>
<feBlend mode="normal" in="SourceGraphic" in2="effect1_dropShadow_0_334" result="shape"/>
</filter>
<linearGradient id="paint0_linear_0_334" x1="261.064" y1="76.8633" x2="261.064" y2="364.042" gradientUnits="userSpaceOnUse">
<stop stop-color="white"/>
<stop offset="1" stop-color="white" stop-opacity="0.47"/>
</linearGradient>
</defs>
</svg>
