<svg width="459" height="415" viewBox="0 0 459 415" fill="none" xmlns="http://www.w3.org/2000/svg">
<rect x="10.7334" y="6.19434" width="448.266" height="392.414" rx="11" fill="#EEE2D7"/>
<g filter="url(#filter0_d_0_369)">
<rect x="202.221" y="62.3789" width="202.167" height="173.061" rx="4.71984" fill="white"/>
</g>
<path d="M221.995 90.1123V81.4781H225.569C226.081 81.4781 226.555 81.562 226.992 81.7299C227.436 81.8893 227.827 82.1284 228.162 82.4473C228.506 82.7577 228.771 83.1479 228.955 83.6178C229.148 84.0793 229.245 84.6121 229.245 85.2163V86.1602C229.245 86.7644 229.148 87.3098 228.955 87.7964C228.771 88.2747 228.506 88.6901 228.162 89.0425C227.827 89.3865 227.436 89.6508 226.992 89.8354C226.555 90.02 226.081 90.1123 225.569 90.1123H221.995ZM224.109 88.5013H225.393C225.695 88.5013 225.968 88.4299 226.211 88.2873C226.463 88.1447 226.66 87.9349 226.803 87.658C226.946 87.3727 227.017 87.0203 227.017 86.6007V84.8513C227.017 84.4317 226.946 84.0919 226.803 83.8318C226.66 83.5717 226.463 83.3787 226.211 83.2528C225.968 83.1269 225.695 83.064 225.393 83.064H224.109V88.5013ZM232.27 90.2382C231.926 90.2382 231.599 90.1794 231.289 90.062C230.978 89.9445 230.722 89.7557 230.521 89.4956C230.328 89.2271 230.231 88.8663 230.231 88.4132C230.231 87.9601 230.328 87.5909 230.521 87.3056C230.722 87.0119 231.008 86.7853 231.377 86.6259C231.754 86.4665 232.203 86.3574 232.724 86.2987C233.252 86.2315 233.84 86.198 234.486 86.198V85.6819C234.486 85.3463 234.393 85.1114 234.209 84.9771C234.024 84.8345 233.764 84.7632 233.428 84.7632C233.126 84.7632 232.87 84.8303 232.661 84.9645C232.451 85.0988 232.346 85.296 232.346 85.5561V85.6442H230.445C230.437 85.619 230.433 85.5896 230.433 85.5561C230.433 85.5141 230.433 85.4722 230.433 85.4302C230.433 85.0694 230.55 84.7464 230.785 84.4611C231.02 84.1758 231.352 83.9534 231.78 83.794C232.216 83.6346 232.724 83.5549 233.303 83.5549H233.617C234.557 83.5549 235.258 83.7395 235.719 84.1087C236.181 84.4695 236.411 84.9519 236.411 85.5561V88.5264C236.411 88.6859 236.449 88.8033 236.525 88.8789C236.609 88.946 236.697 88.9795 236.789 88.9795C236.873 88.9795 236.957 88.967 237.041 88.9418C237.125 88.9082 237.204 88.8747 237.28 88.8411V89.9613C237.171 90.0452 237.024 90.1123 236.839 90.1626C236.655 90.213 236.42 90.2382 236.134 90.2382C235.816 90.2382 235.543 90.192 235.316 90.0997C235.098 89.999 234.93 89.869 234.813 89.7095C234.695 89.5501 234.62 89.3655 234.586 89.1558C234.351 89.4578 234.045 89.7137 233.668 89.9235C233.29 90.1333 232.824 90.2382 232.27 90.2382ZM233.252 88.9795C233.462 88.9795 233.659 88.9334 233.844 88.8411C234.037 88.7404 234.192 88.5978 234.309 88.4132C234.427 88.2202 234.486 87.9852 234.486 87.7083V87.1923C233.999 87.1923 233.592 87.2259 233.265 87.293C232.938 87.3601 232.69 87.465 232.522 87.6076C232.363 87.7503 232.283 87.9475 232.283 88.1992C232.283 88.4929 232.371 88.6984 232.547 88.8159C232.732 88.925 232.967 88.9795 233.252 88.9795ZM240.632 90.2382C240.237 90.2382 239.889 90.1878 239.587 90.0871C239.285 89.9864 239.046 89.8144 238.869 89.5711C238.702 89.3194 238.618 88.9879 238.618 88.5768V85.1282H237.913V83.6807H238.681L239.373 81.6292H240.594V83.6807H242.092V85.1282H240.594V88.1111C240.594 88.4803 240.669 88.7194 240.82 88.8285C240.971 88.9292 241.135 88.9795 241.311 88.9795C241.404 88.9795 241.529 88.9628 241.689 88.9292C241.857 88.8872 241.991 88.8453 242.092 88.8033V89.9864C241.974 90.0368 241.823 90.0829 241.638 90.1249C241.462 90.1668 241.282 90.1962 241.097 90.213C240.921 90.2298 240.766 90.2382 240.632 90.2382ZM245.004 90.2382C244.66 90.2382 244.333 90.1794 244.022 90.062C243.712 89.9445 243.456 89.7557 243.255 89.4956C243.062 89.2271 242.965 88.8663 242.965 88.4132C242.965 87.9601 243.062 87.5909 243.255 87.3056C243.456 87.0119 243.741 86.7853 244.111 86.6259C244.488 86.4665 244.937 86.3574 245.457 86.2987C245.986 86.2315 246.573 86.198 247.219 86.198V85.6819C247.219 85.3463 247.127 85.1114 246.942 84.9771C246.758 84.8345 246.498 84.7632 246.162 84.7632C245.86 84.7632 245.604 84.8303 245.394 84.9645C245.185 85.0988 245.08 85.296 245.08 85.5561V85.6442H243.179C243.171 85.619 243.167 85.5896 243.167 85.5561C243.167 85.5141 243.167 85.4722 243.167 85.4302C243.167 85.0694 243.284 84.7464 243.519 84.4611C243.754 84.1758 244.085 83.9534 244.513 83.794C244.95 83.6346 245.457 83.5549 246.036 83.5549H246.351C247.291 83.5549 247.991 83.7395 248.453 84.1087C248.914 84.4695 249.145 84.9519 249.145 85.5561V88.5264C249.145 88.6859 249.183 88.8033 249.258 88.8789C249.342 88.946 249.43 88.9795 249.523 88.9795C249.607 88.9795 249.69 88.967 249.774 88.9418C249.858 88.9082 249.938 88.8747 250.014 88.8411V89.9613C249.904 90.0452 249.758 90.1123 249.573 90.1626C249.388 90.213 249.153 90.2382 248.868 90.2382C248.549 90.2382 248.277 90.192 248.05 90.0997C247.832 89.999 247.664 89.869 247.547 89.7095C247.429 89.5501 247.354 89.3655 247.32 89.1558C247.085 89.4578 246.779 89.7137 246.401 89.9235C246.024 90.1333 245.558 90.2382 245.004 90.2382ZM245.986 88.9795C246.196 88.9795 246.393 88.9334 246.577 88.8411C246.77 88.7404 246.926 88.5978 247.043 88.4132C247.161 88.2202 247.219 87.9852 247.219 87.7083V87.1923C246.733 87.1923 246.326 87.2259 245.999 87.293C245.671 87.3601 245.424 87.465 245.256 87.6076C245.096 87.7503 245.017 87.9475 245.017 88.1992C245.017 88.4929 245.105 88.6984 245.281 88.8159C245.466 88.925 245.701 88.9795 245.986 88.9795ZM252.875 90.1123L255.958 81.4781H258.501L261.572 90.1123H259.382L258.765 88.4006H255.518L254.914 90.1123H252.875ZM256.021 86.9154H258.261L257.179 83.6556H257.116L256.021 86.9154ZM262.369 90.1123V83.6807H263.842L264.068 84.6121C264.328 84.2513 264.63 83.987 264.974 83.8192C265.318 83.643 265.721 83.5549 266.183 83.5549C266.619 83.5549 266.997 83.6388 267.315 83.8066C267.643 83.966 267.894 84.1968 268.071 84.4988C268.247 84.8009 268.335 85.1617 268.335 85.5813V90.1123H266.359V86.0344C266.359 85.6903 266.271 85.4302 266.095 85.254C265.918 85.0778 265.688 84.9897 265.402 84.9897C265.209 84.9897 265.033 85.04 264.874 85.1407C264.714 85.2414 264.584 85.3757 264.484 85.5435C264.391 85.7029 264.345 85.8875 264.345 86.0973V90.1123H262.369ZM271.578 90.2382C271.234 90.2382 270.907 90.1794 270.596 90.062C270.286 89.9445 270.03 89.7557 269.828 89.4956C269.635 89.2271 269.539 88.8663 269.539 88.4132C269.539 87.9601 269.635 87.5909 269.828 87.3056C270.03 87.0119 270.315 86.7853 270.684 86.6259C271.062 86.4665 271.511 86.3574 272.031 86.2987C272.56 86.2315 273.147 86.198 273.793 86.198V85.6819C273.793 85.3463 273.701 85.1114 273.516 84.9771C273.332 84.8345 273.071 84.7632 272.736 84.7632C272.434 84.7632 272.178 84.8303 271.968 84.9645C271.758 85.0988 271.653 85.296 271.653 85.5561V85.6442H269.753C269.744 85.619 269.74 85.5896 269.74 85.5561C269.74 85.5141 269.74 85.4722 269.74 85.4302C269.74 85.0694 269.858 84.7464 270.093 84.4611C270.328 84.1758 270.659 83.9534 271.087 83.794C271.523 83.6346 272.031 83.5549 272.61 83.5549H272.925C273.864 83.5549 274.565 83.7395 275.027 84.1087C275.488 84.4695 275.719 84.9519 275.719 85.5561V88.5264C275.719 88.6859 275.757 88.8033 275.832 88.8789C275.916 88.946 276.004 88.9795 276.096 88.9795C276.18 88.9795 276.264 88.967 276.348 88.9418C276.432 88.9082 276.512 88.8747 276.587 88.8411V89.9613C276.478 90.0452 276.331 90.1123 276.147 90.1626C275.962 90.213 275.727 90.2382 275.442 90.2382C275.123 90.2382 274.85 90.192 274.624 90.0997C274.406 89.999 274.238 89.869 274.12 89.7095C274.003 89.5501 273.927 89.3655 273.894 89.1558C273.659 89.4578 273.353 89.7137 272.975 89.9235C272.597 90.1333 272.132 90.2382 271.578 90.2382ZM272.56 88.9795C272.769 88.9795 272.967 88.9334 273.151 88.8411C273.344 88.7404 273.499 88.5978 273.617 88.4132C273.734 88.2202 273.793 87.9852 273.793 87.7083V87.1923C273.306 87.1923 272.899 87.2259 272.572 87.293C272.245 87.3601 271.997 87.465 271.83 87.6076C271.67 87.7503 271.59 87.9475 271.59 88.1992C271.59 88.4929 271.679 88.6984 271.855 88.8159C272.039 88.925 272.274 88.9795 272.56 88.9795ZM277.61 90.1123V81.0502H279.586V90.1123H277.61ZM282.018 92.4533C281.783 92.4533 281.573 92.4366 281.389 92.403C281.204 92.3778 281.04 92.3359 280.898 92.2771V90.9052C280.99 90.9472 281.116 90.985 281.275 91.0185C281.443 91.0521 281.607 91.0689 281.766 91.0689C282.01 91.0689 282.198 91.0185 282.333 90.9178C282.475 90.8255 282.589 90.6955 282.672 90.5277C282.756 90.3598 282.832 90.171 282.899 89.9613L280.457 83.6807H282.572L283.893 87.6076H283.981L285.202 83.6807H287.153L284.875 89.7347C284.69 90.2466 284.468 90.7081 284.208 91.1192C283.948 91.5304 283.637 91.8534 283.277 92.0883C282.924 92.3317 282.505 92.4533 282.018 92.4533ZM290.337 90.2382C289.943 90.2382 289.595 90.1878 289.293 90.0871C288.991 89.9864 288.752 89.8144 288.575 89.5711C288.408 89.3194 288.324 88.9879 288.324 88.5768V85.1282H287.619V83.6807H288.387L289.079 81.6292H290.3V83.6807H291.797V85.1282H290.3V88.1111C290.3 88.4803 290.375 88.7194 290.526 88.8285C290.677 88.9292 290.841 88.9795 291.017 88.9795C291.109 88.9795 291.235 88.9628 291.395 88.9292C291.562 88.8872 291.697 88.8453 291.797 88.8033V89.9864C291.68 90.0368 291.529 90.0829 291.344 90.1249C291.168 90.1668 290.988 90.1962 290.803 90.213C290.627 90.2298 290.472 90.2382 290.337 90.2382ZM293.074 90.1123V83.6807H295.05V90.1123H293.074ZM293.049 82.5354V81.0502H295.062V82.5354H293.049ZM299.343 90.2382C298.797 90.2382 298.298 90.1039 297.845 89.8354C297.392 89.5585 297.031 89.1851 296.763 88.7152C296.494 88.237 296.36 87.6999 296.36 87.1042V86.6763C296.36 86.2232 296.44 85.8078 296.599 85.4302C296.758 85.0526 296.977 84.7254 297.254 84.4485C297.539 84.1632 297.862 83.945 298.223 83.794C298.592 83.6346 298.986 83.5549 299.406 83.5549H299.683C300.278 83.5549 300.786 83.6681 301.206 83.8947C301.634 84.1213 301.961 84.4359 302.187 84.8387C302.414 85.2414 302.527 85.7113 302.527 86.2483H300.815C300.815 85.9295 300.769 85.6652 300.677 85.4554C300.585 85.2372 300.455 85.0778 300.287 84.9771C300.119 84.868 299.909 84.8135 299.658 84.8135C299.322 84.8135 299.037 84.931 298.802 85.1659C298.575 85.3925 298.462 85.7155 298.462 86.1351V87.6328C298.462 88.0524 298.567 88.3838 298.776 88.6271C298.995 88.8621 299.297 88.9795 299.683 88.9795C299.96 88.9795 300.186 88.9334 300.362 88.8411C300.547 88.7488 300.685 88.5978 300.778 88.388C300.87 88.1782 300.916 87.8971 300.916 87.5447H302.527C302.527 88.1153 302.401 88.602 302.15 89.0047C301.906 89.4075 301.566 89.7137 301.13 89.9235C300.694 90.1333 300.19 90.2382 299.62 90.2382H299.343ZM306.095 90.2382C305.709 90.2382 305.352 90.192 305.025 90.0997C304.698 90.0074 304.409 89.8774 304.157 89.7095C303.913 89.5333 303.72 89.3278 303.578 89.0928C303.444 88.8495 303.376 88.581 303.376 88.2873C303.376 88.2453 303.376 88.2076 303.376 88.174C303.376 88.1405 303.381 88.0985 303.389 88.0482H305.038C305.029 88.0649 305.025 88.0817 305.025 88.0985C305.025 88.1153 305.025 88.1321 305.025 88.1489C305.025 88.3502 305.092 88.5139 305.227 88.6397C305.361 88.7572 305.533 88.8453 305.743 88.904C305.952 88.9544 306.171 88.9795 306.397 88.9795C306.565 88.9795 306.745 88.9586 306.938 88.9166C307.14 88.8747 307.312 88.8075 307.454 88.7152C307.597 88.6229 307.668 88.4971 307.668 88.3376C307.668 88.1614 307.593 88.0272 307.442 87.9349C307.299 87.8426 307.106 87.7713 306.863 87.7209C306.619 87.6706 306.351 87.6244 306.057 87.5825C305.772 87.5321 305.483 87.4734 305.189 87.4063C304.895 87.3307 304.627 87.2259 304.383 87.0916C304.14 86.949 303.943 86.7602 303.792 86.5252C303.649 86.2903 303.578 85.984 303.578 85.6064C303.578 85.2624 303.653 84.9603 303.804 84.7002C303.964 84.4401 304.178 84.2261 304.446 84.0583C304.723 83.8905 305.029 83.7646 305.365 83.6807C305.701 83.5968 306.045 83.5549 306.397 83.5549H306.687C307.005 83.5549 307.32 83.5968 307.631 83.6807C307.941 83.7563 308.222 83.8695 308.474 84.0206C308.726 84.1716 308.927 84.3562 309.078 84.5744C309.229 84.7841 309.305 85.0191 309.305 85.2792C309.305 85.3295 309.3 85.3841 309.292 85.4428C309.292 85.4932 309.292 85.5351 309.292 85.5687H307.618V85.468C307.618 85.3841 307.593 85.3002 307.542 85.2163C307.492 85.1323 307.417 85.061 307.316 85.0023C307.215 84.9352 307.094 84.8848 306.951 84.8513C306.817 84.8093 306.657 84.7883 306.473 84.7883C306.322 84.7883 306.175 84.8051 306.032 84.8387C305.889 84.8638 305.764 84.9016 305.655 84.9519C305.554 85.0023 305.474 85.0652 305.415 85.1407C305.357 85.2079 305.327 85.2834 305.327 85.3673C305.327 85.5351 305.399 85.661 305.541 85.7449C305.692 85.8288 305.889 85.8959 306.133 85.9463C306.385 85.9882 306.657 86.0302 306.951 86.0721C307.245 86.1057 307.538 86.1602 307.832 86.2357C308.126 86.3029 308.394 86.4078 308.637 86.5504C308.881 86.6847 309.078 86.8734 309.229 87.1168C309.38 87.3517 309.456 87.6622 309.456 88.0482C309.456 88.4593 309.376 88.8075 309.216 89.0928C309.057 89.3697 308.839 89.5921 308.562 89.7599C308.293 89.9277 307.987 90.0494 307.643 90.1249C307.299 90.2004 306.943 90.2382 306.573 90.2382H306.095Z" fill="#060C3C"/>
<rect x="221.101" y="214.987" width="18.8794" height="4.71984" rx="2.35992" fill="#B4B6C4"/>
<rect x="257.287" y="214.987" width="18.8794" height="4.71984" rx="2.35992" fill="#B4B6C4"/>
<rect x="293.473" y="214.987" width="18.8794" height="4.71984" rx="2.35992" fill="#B4B6C4"/>
<rect x="329.658" y="214.987" width="18.8794" height="4.71984" rx="2.35992" fill="#B4B6C4"/>
<rect x="365.843" y="214.987" width="18.8794" height="4.71984" rx="2.35992" fill="#B4B6C4"/>
<line opacity="0.2" x1="221.495" y1="179.979" x2="385.116" y2="179.979" stroke="#B4B6C4" stroke-width="0.78664" stroke-linecap="round"/>
<line opacity="0.2" x1="221.495" y1="157.957" x2="385.116" y2="157.957" stroke="#B4B6C4" stroke-width="0.78664" stroke-linecap="round"/>
<line opacity="0.2" x1="221.495" y1="135.93" x2="385.116" y2="135.93" stroke="#B4B6C4" stroke-width="0.78664" stroke-linecap="round"/>
<line opacity="0.2" x1="221.495" y1="113.903" x2="385.116" y2="113.903" stroke="#B4B6C4" stroke-width="0.78664" stroke-linecap="round"/>
<line opacity="0.2" x1="221.495" y1="202.006" x2="385.116" y2="202.006" stroke="#B4B6C4" stroke-width="0.78664" stroke-linecap="round"/>
<rect x="221.888" y="140.255" width="12.5862" height="61.3579" fill="#37BFD7"/>
<rect x="322.578" y="125.309" width="12.5862" height="76.3041" fill="#37BFD7"/>
<rect x="272.233" y="158.35" width="12.5862" height="43.2652" fill="#37BFD7"/>
<rect x="372.923" y="144.189" width="12.5862" height="57.4247" fill="#37BFD7"/>
<rect x="297.406" y="148.908" width="12.5862" height="52.7049" fill="#6097FF"/>
<rect x="247.06" y="159.922" width="12.5862" height="41.6919" fill="#6097FF"/>
<rect x="347.751" y="133.961" width="12.5862" height="67.6511" fill="#6097FF"/>
<path d="M222.282 137.503C231.825 112.788 240.879 159.922 252.961 159.922C263.467 159.922 267.105 141.474 276.56 141.474C282.864 141.474 287.195 149.373 294.26 149.302C301.324 149.232 298.193 136.323 310.386 148.123C322.089 159.448 318.893 111.954 328.873 111.954C336.752 111.954 333.601 131.813 345.682 131.813C355.137 131.813 356.713 117.321 365.118 117.321C375.098 117.321 368.269 141.474 383.503 141.474" stroke="#6241D4" stroke-width="1.57328" stroke-linecap="round" stroke-linejoin="round"/>
<g filter="url(#filter1_d_0_369)">
<rect x="30.7337" y="260.612" width="305.216" height="117.996" rx="4.71984" fill="white"/>
</g>
<circle cx="297.405" cy="337.702" r="19.666" fill="#37BFD7"/>
<circle cx="269.086" cy="337.702" r="19.666" fill="#6097FF"/>
<circle cx="240.768" cy="337.702" r="19.666" fill="#37BFD7"/>
<circle cx="212.448" cy="337.702" r="19.666" fill="#6097FF"/>
<path d="M55.7344 351.333C55.4177 350.994 54.8202 350.994 54.5035 351.333L51.3632 354.686C50.9448 355.133 51.3132 355.799 51.9786 355.799L58.2593 355.799C58.9247 355.799 59.293 355.133 58.8747 354.686L55.7344 351.333Z" fill="#38E7B2"/>
<path d="M69.3478 359.253C68.8192 359.253 68.3603 359.161 67.9712 358.978C67.5894 358.794 67.2958 358.541 67.0902 358.218C66.8846 357.895 66.7818 357.528 66.7818 357.117V356.918H67.828C67.828 357.425 67.9749 357.792 68.2686 358.02C68.5622 358.247 68.9587 358.361 69.458 358.361C69.9352 358.361 70.328 358.247 70.6364 358.02C70.9447 357.792 71.0989 357.454 71.0989 357.007C71.0989 356.698 71.0291 356.449 70.8896 356.258C70.7502 356.059 70.5593 355.916 70.317 355.828C70.082 355.733 69.8251 355.685 69.5461 355.685H68.599V354.881H69.447C69.7113 354.881 69.9572 354.833 70.1848 354.738C70.4124 354.642 70.5923 354.499 70.7245 354.308C70.864 354.117 70.9337 353.883 70.9337 353.604C70.9337 353.325 70.8676 353.097 70.7355 352.921C70.6033 352.737 70.4234 352.601 70.1958 352.513C69.9756 352.425 69.7259 352.381 69.447 352.381C68.9917 352.381 68.632 352.495 68.3677 352.723C68.1034 352.95 67.9712 353.28 67.9712 353.714H66.969V353.526C66.969 353.108 67.0792 352.748 67.2994 352.447C67.527 352.139 67.828 351.9 68.2025 351.731C68.5769 351.562 68.9991 351.478 69.469 351.478H69.6232C70.0784 351.478 70.4895 351.559 70.8566 351.72C71.2237 351.882 71.5137 352.117 71.7266 352.425C71.9396 352.726 72.046 353.086 72.046 353.504C72.046 353.798 71.9909 354.055 71.8808 354.275C71.778 354.488 71.6385 354.672 71.4623 354.826C71.2861 354.973 71.0879 355.098 70.8676 355.2V355.255C71.2567 355.38 71.5798 355.593 71.8368 355.894C72.0937 356.188 72.2222 356.584 72.2222 357.084C72.2222 357.509 72.1047 357.884 71.8698 358.207C71.6349 358.53 71.3118 358.787 70.9007 358.978C70.4969 359.161 70.038 359.253 69.524 359.253H69.3478ZM73.6234 359.143V358.802C73.6234 358.339 73.7226 357.943 73.9208 357.612C74.119 357.282 74.4054 356.985 74.7798 356.72L76.8833 355.267C77.1256 355.098 77.3311 354.892 77.5 354.65C77.6689 354.407 77.7533 354.117 77.7533 353.78C77.7533 353.347 77.6248 353.009 77.3679 352.767C77.1182 352.524 76.7511 352.403 76.2666 352.403C75.9729 352.403 75.7086 352.469 75.4736 352.601C75.246 352.734 75.0661 352.913 74.934 353.141C74.8018 353.369 74.7358 353.626 74.7358 353.912C74.7358 353.963 74.7358 354.011 74.7358 354.055C74.7358 354.099 74.7394 354.143 74.7468 354.187H73.7005C73.7005 354.136 73.7005 354.099 73.7005 354.077C73.7005 354.048 73.7005 354.018 73.7005 353.989C73.7005 353.497 73.8107 353.064 74.0309 352.689C74.2585 352.308 74.5669 352.01 74.956 351.797C75.3525 351.585 75.804 351.478 76.3106 351.478H76.4428C76.9567 351.478 77.3936 351.573 77.7533 351.764C78.1204 351.955 78.3994 352.22 78.5903 352.557C78.7885 352.888 78.8876 353.28 78.8876 353.736C78.8876 354.117 78.8216 354.452 78.6894 354.738C78.5646 355.024 78.3921 355.274 78.1718 355.487C77.9589 355.7 77.7166 355.898 77.4449 356.081L75.4846 357.436C75.3745 357.509 75.2791 357.594 75.1983 357.689C75.1175 357.777 75.0551 357.866 75.0111 357.954C74.9744 358.034 74.9487 358.108 74.934 358.174H78.9207V359.143H73.6234ZM80.8836 359.143L85.476 351.588H86.2579L81.6765 359.143H80.8836ZM81.3571 355.443C81.1002 355.443 80.8726 355.384 80.6743 355.267C80.4761 355.142 80.3182 354.976 80.2008 354.771C80.0906 354.565 80.0356 354.341 80.0356 354.099V352.921C80.0356 352.678 80.0906 352.458 80.2008 352.26C80.3182 352.054 80.4761 351.893 80.6743 351.775C80.8726 351.651 81.1002 351.588 81.3571 351.588H81.4562C81.7279 351.588 81.9592 351.651 82.1501 351.775C82.3483 351.893 82.5025 352.054 82.6126 352.26C82.7301 352.458 82.7888 352.678 82.7888 352.921V354.099C82.7888 354.341 82.7301 354.565 82.6126 354.771C82.5025 354.976 82.3483 355.142 82.1501 355.267C81.9592 355.384 81.7316 355.443 81.4673 355.443H81.3571ZM81.4122 354.837C81.6251 354.837 81.7866 354.775 81.8968 354.65C82.0069 354.525 82.062 354.367 82.062 354.176V352.844C82.062 352.66 82.0069 352.506 81.8968 352.381C81.7866 352.256 81.6251 352.194 81.4122 352.194C81.214 352.194 81.0561 352.256 80.9386 352.381C80.8212 352.506 80.7624 352.66 80.7624 352.844V354.176C80.7624 354.367 80.8212 354.525 80.9386 354.65C81.0561 354.775 81.214 354.837 81.4122 354.837ZM85.6522 359.154C85.3952 359.154 85.1676 359.095 84.9694 358.978C84.7711 358.853 84.6133 358.688 84.4958 358.482C84.3857 358.277 84.3306 358.053 84.3306 357.81V356.632C84.3306 356.39 84.3857 356.17 84.4958 355.971C84.6133 355.766 84.7711 355.604 84.9694 355.487C85.1676 355.362 85.3952 355.3 85.6522 355.3H85.7513C86.023 355.3 86.2542 355.362 86.4451 355.487C86.6434 355.604 86.7975 355.766 86.9077 355.971C87.0251 356.17 87.0839 356.39 87.0839 356.632V357.81C87.0839 358.053 87.0251 358.277 86.9077 358.482C86.7975 358.688 86.6434 358.853 86.4451 358.978C86.2542 359.095 86.0266 359.154 85.7623 359.154H85.6522ZM85.7072 358.548C85.9202 358.548 86.0817 358.486 86.1918 358.361C86.3019 358.229 86.357 358.071 86.357 357.888V356.555C86.357 356.371 86.3019 356.217 86.1918 356.092C86.0817 355.968 85.9202 355.905 85.7072 355.905C85.509 355.905 85.3512 355.968 85.2337 356.092C85.1162 356.217 85.0575 356.371 85.0575 356.555V357.888C85.0575 358.071 85.1162 358.229 85.2337 358.361C85.3512 358.486 85.509 358.548 85.7072 358.548ZM92.4435 359.253C92.1718 359.253 91.9259 359.209 91.7056 359.121C91.4927 359.033 91.3238 358.893 91.199 358.703C91.0815 358.504 91.0228 358.244 91.0228 357.921V354.374H90.4061V353.515H91.0558L91.4413 351.72H92.1241V353.515H93.4346V354.374H92.1241V357.722C92.1241 358.045 92.1902 358.251 92.3223 358.339C92.4545 358.427 92.5977 358.471 92.7518 358.471C92.8326 358.471 92.9427 358.453 93.0822 358.416C93.2291 358.38 93.3465 358.343 93.4346 358.306V359.044C93.3539 359.088 93.2548 359.125 93.1373 359.154C93.0272 359.191 92.9097 359.216 92.7849 359.231C92.6674 359.246 92.5536 359.253 92.4435 359.253ZM94.8786 359.143V351.214H95.9799V354.264C96.1782 353.978 96.4315 353.765 96.7398 353.626C97.0555 353.479 97.3786 353.405 97.709 353.405C98.0908 353.405 98.4285 353.479 98.7222 353.626C99.0158 353.772 99.2471 353.993 99.416 354.286C99.5922 354.573 99.6803 354.932 99.6803 355.366V359.143H98.579V355.553C98.579 355.09 98.4689 354.76 98.2486 354.562C98.0357 354.356 97.7347 354.253 97.3455 354.253C97.0959 354.253 96.8646 354.316 96.6517 354.441C96.4461 354.565 96.281 354.734 96.1561 354.947C96.0387 355.153 95.9799 355.391 95.9799 355.663V359.143H94.8786ZM101.527 359.143V353.515H102.628V359.143H101.527ZM101.494 352.139V351.214H102.662V352.139H101.494ZM106.411 359.253C106.021 359.253 105.684 359.205 105.397 359.11C105.111 359.015 104.872 358.89 104.681 358.736C104.491 358.574 104.347 358.398 104.252 358.207C104.157 358.009 104.109 357.814 104.109 357.623C104.109 357.579 104.109 357.543 104.109 357.513C104.109 357.476 104.112 357.432 104.12 357.381H105.089C105.082 357.403 105.078 357.425 105.078 357.447C105.078 357.462 105.078 357.48 105.078 357.502C105.078 357.715 105.144 357.895 105.276 358.042C105.416 358.181 105.599 358.288 105.827 358.361C106.062 358.435 106.326 358.471 106.62 358.471C106.869 358.471 107.097 358.438 107.303 358.372C107.515 358.306 107.681 358.211 107.798 358.086C107.923 357.954 107.985 357.799 107.985 357.623C107.985 357.418 107.919 357.26 107.787 357.15C107.655 357.032 107.479 356.944 107.258 356.885C107.038 356.819 106.796 356.764 106.532 356.72C106.275 356.669 106.01 356.614 105.739 356.555C105.474 356.489 105.232 356.401 105.012 356.291C104.792 356.181 104.615 356.03 104.483 355.839C104.351 355.641 104.285 355.38 104.285 355.057C104.285 354.808 104.34 354.58 104.45 354.374C104.56 354.169 104.718 353.996 104.924 353.857C105.129 353.71 105.372 353.6 105.651 353.526C105.937 353.446 106.249 353.405 106.587 353.405H106.73C107.053 353.405 107.347 353.449 107.611 353.537C107.875 353.618 108.103 353.732 108.294 353.879C108.485 354.018 108.628 354.18 108.723 354.363C108.826 354.54 108.877 354.727 108.877 354.925C108.877 354.962 108.874 355.002 108.866 355.046C108.866 355.083 108.866 355.109 108.866 355.123H107.897V355.002C107.897 354.929 107.879 354.848 107.842 354.76C107.813 354.664 107.747 354.576 107.644 354.496C107.549 354.407 107.413 354.334 107.236 354.275C107.068 354.217 106.847 354.187 106.576 354.187C106.319 354.187 106.106 354.213 105.937 354.264C105.768 354.316 105.636 354.382 105.54 354.463C105.452 354.543 105.39 354.628 105.353 354.716C105.317 354.804 105.298 354.885 105.298 354.958C105.298 355.134 105.364 355.278 105.496 355.388C105.629 355.49 105.805 355.571 106.025 355.63C106.245 355.689 106.488 355.74 106.752 355.784C107.024 355.828 107.292 355.883 107.556 355.949C107.82 356.008 108.062 356.096 108.283 356.214C108.503 356.324 108.679 356.478 108.811 356.676C108.943 356.874 109.01 357.131 109.01 357.447C109.01 357.777 108.947 358.06 108.822 358.295C108.698 358.523 108.525 358.706 108.305 358.846C108.084 358.985 107.831 359.088 107.545 359.154C107.258 359.22 106.954 359.253 106.631 359.253H106.411ZM112.925 359.143V353.515H113.74L113.905 354.341C114.089 354.048 114.317 353.82 114.588 353.659C114.86 353.49 115.172 353.405 115.524 353.405C115.891 353.405 116.218 353.479 116.504 353.626C116.791 353.772 117.015 354.007 117.176 354.33C117.338 354.059 117.562 353.838 117.848 353.67C118.142 353.493 118.487 353.405 118.883 353.405C119.243 353.405 119.562 353.479 119.841 353.626C120.12 353.772 120.337 353.993 120.491 354.286C120.653 354.573 120.733 354.932 120.733 355.366V359.143H119.643V355.608C119.643 355.138 119.548 354.797 119.357 354.584C119.173 354.371 118.909 354.264 118.564 354.264C118.336 354.264 118.131 354.323 117.947 354.441C117.771 354.558 117.631 354.723 117.529 354.936C117.433 355.149 117.386 355.388 117.386 355.652V359.143H116.284V355.608C116.284 355.138 116.189 354.797 115.998 354.584C115.814 354.371 115.546 354.264 115.194 354.264C114.966 354.264 114.764 354.323 114.588 354.441C114.412 354.558 114.273 354.723 114.17 354.936C114.074 355.149 114.027 355.388 114.027 355.652V359.143H112.925ZM124.81 359.253C124.325 359.253 123.888 359.139 123.499 358.912C123.117 358.684 122.816 358.357 122.596 357.932C122.376 357.506 122.266 357.003 122.266 356.423V356.236C122.266 355.641 122.376 355.134 122.596 354.716C122.816 354.29 123.117 353.967 123.499 353.747C123.888 353.519 124.325 353.405 124.81 353.405H124.953C125.445 353.405 125.881 353.519 126.263 353.747C126.645 353.974 126.946 354.301 127.166 354.727C127.387 355.145 127.497 355.648 127.497 356.236V356.423C127.497 357.003 127.387 357.506 127.166 357.932C126.946 358.357 126.641 358.684 126.252 358.912C125.87 359.139 125.437 359.253 124.953 359.253H124.81ZM124.876 358.471C125.155 358.471 125.404 358.405 125.625 358.273C125.845 358.141 126.021 357.943 126.153 357.678C126.285 357.414 126.351 357.087 126.351 356.698V355.96C126.351 355.564 126.285 355.237 126.153 354.98C126.021 354.716 125.845 354.518 125.625 354.385C125.404 354.253 125.155 354.187 124.876 354.187C124.604 354.187 124.358 354.253 124.138 354.385C123.918 354.518 123.741 354.716 123.609 354.98C123.477 355.237 123.411 355.564 123.411 355.96V356.698C123.411 357.087 123.477 357.414 123.609 357.678C123.741 357.943 123.918 358.141 124.138 358.273C124.358 358.405 124.604 358.471 124.876 358.471ZM128.993 359.143V353.515H129.786L129.94 354.341C130.146 354.033 130.41 353.802 130.733 353.648C131.063 353.486 131.42 353.405 131.801 353.405C132.19 353.405 132.532 353.479 132.826 353.626C133.127 353.772 133.361 353.993 133.53 354.286C133.699 354.573 133.784 354.932 133.784 355.366V359.143H132.682V355.553C132.682 355.09 132.576 354.76 132.363 354.562C132.15 354.356 131.849 354.253 131.46 354.253C131.21 354.253 130.979 354.316 130.766 354.441C130.561 354.565 130.395 354.734 130.271 354.947C130.153 355.153 130.094 355.391 130.094 355.663V359.143H128.993ZM137.141 359.253C136.869 359.253 136.623 359.209 136.403 359.121C136.19 359.033 136.021 358.893 135.896 358.703C135.779 358.504 135.72 358.244 135.72 357.921V354.374H135.103V353.515H135.753L136.138 351.72H136.821V353.515H138.132V354.374H136.821V357.722C136.821 358.045 136.887 358.251 137.019 358.339C137.152 358.427 137.295 358.471 137.449 358.471C137.53 358.471 137.64 358.453 137.779 358.416C137.926 358.38 138.044 358.343 138.132 358.306V359.044C138.051 359.088 137.952 359.125 137.834 359.154C137.724 359.191 137.607 359.216 137.482 359.231C137.365 359.246 137.251 359.253 137.141 359.253ZM139.576 359.143V351.214H140.677V354.264C140.875 353.978 141.129 353.765 141.437 353.626C141.753 353.479 142.076 353.405 142.406 353.405C142.788 353.405 143.126 353.479 143.419 353.626C143.713 353.772 143.944 353.993 144.113 354.286C144.289 354.573 144.377 354.932 144.377 355.366V359.143H143.276V355.553C143.276 355.09 143.166 354.76 142.946 354.562C142.733 354.356 142.432 354.253 142.043 354.253C141.793 354.253 141.562 354.316 141.349 354.441C141.143 354.565 140.978 354.734 140.853 354.947C140.736 355.153 140.677 355.391 140.677 355.663V359.143H139.576Z" fill="#38E7B2"/>
<path d="M50.507 288.346V279.712H52.2691L55.0632 283.84L55.5037 284.608L55.5541 284.582V279.712H57.4798V288.346H55.6674L52.7851 284.079L52.483 283.513L52.4327 283.525V288.346H50.507ZM62.0282 288.472C61.3989 288.472 60.8409 288.35 60.3543 288.107C59.876 287.855 59.4984 287.494 59.2215 287.024C58.953 286.546 58.8187 285.971 58.8187 285.3V284.96C58.8187 284.28 58.9572 283.706 59.2341 283.236C59.5194 282.757 59.9053 282.397 60.392 282.153C60.8787 281.91 61.4367 281.788 62.066 281.788H62.3051C62.9093 281.788 63.4295 281.906 63.8658 282.141C64.3021 282.376 64.6378 282.707 64.8727 283.135C65.1077 283.555 65.2251 284.041 65.2251 284.595V285.388H60.9206C60.9206 285.74 60.9584 286.055 61.0339 286.332C61.1178 286.609 61.2479 286.827 61.4241 286.986C61.6087 287.137 61.8478 287.213 62.1415 287.213C62.4016 287.213 62.6198 287.163 62.796 287.062C62.9806 286.961 63.1232 286.819 63.2239 286.634C63.3246 286.441 63.375 286.21 63.375 285.942H65.2125C65.2125 286.428 65.0825 286.865 64.8224 287.251C64.5706 287.628 64.2182 287.926 63.7651 288.144C63.312 288.362 62.7834 288.472 62.1793 288.472H62.0282ZM60.9206 284.431H63.2743C63.2743 283.953 63.1694 283.605 62.9596 283.387C62.7498 283.16 62.4729 283.047 62.1289 283.047C61.7849 283.047 61.4996 283.164 61.2731 283.399C61.0549 283.634 60.9374 283.978 60.9206 284.431ZM67.8162 288.346L65.8779 281.914H67.9421L68.9616 285.715H69.0371L70.1069 281.914H72.1207L73.178 285.715H73.2661L74.2856 281.914H76.1987L74.2604 288.346H72.083L71.0887 284.847H71.0131L70.0314 288.346H67.8162ZM81.7845 288.472C81.13 288.472 80.614 288.291 80.2364 287.93C79.8672 287.561 79.6826 287.037 79.6826 286.357V281.914H81.6586V285.942C81.6586 286.303 81.7342 286.575 81.8852 286.76C82.0446 286.936 82.2796 287.024 82.59 287.024C82.7914 287.024 82.9718 286.978 83.1312 286.886C83.299 286.785 83.4291 286.651 83.5214 286.483C83.6221 286.307 83.6724 286.118 83.6724 285.917V281.914H85.6485V286.76C85.6485 286.919 85.6862 287.037 85.7618 287.112C85.8457 287.179 85.9338 287.213 86.0261 287.213C86.11 287.213 86.1939 287.2 86.2778 287.175C86.3617 287.142 86.4414 287.108 86.5169 287.074V288.195C86.4078 288.279 86.261 288.346 86.0764 288.396C85.8918 288.446 85.6611 288.472 85.3842 288.472C85.0569 288.472 84.7884 288.43 84.5786 288.346C84.3689 288.253 84.2053 288.128 84.0878 287.968C83.9703 287.809 83.8822 287.628 83.8235 287.427C83.6137 287.754 83.3284 288.01 82.9676 288.195C82.6068 288.379 82.2124 288.472 81.7845 288.472ZM89.953 288.472C89.567 288.472 89.2104 288.425 88.8831 288.333C88.5559 288.241 88.2664 288.111 88.0147 287.943C87.7714 287.767 87.5784 287.561 87.4357 287.326C87.3015 287.083 87.2343 286.814 87.2343 286.521C87.2343 286.479 87.2343 286.441 87.2343 286.407C87.2343 286.374 87.2385 286.332 87.2469 286.282H88.8957C88.8873 286.298 88.8831 286.315 88.8831 286.332C88.8831 286.349 88.8831 286.365 88.8831 286.382C88.8831 286.584 88.9503 286.747 89.0845 286.873C89.2188 286.991 89.3908 287.079 89.6006 287.137C89.8103 287.188 90.0285 287.213 90.255 287.213C90.4229 287.213 90.6033 287.192 90.7962 287.15C90.9976 287.108 91.1696 287.041 91.3123 286.949C91.4549 286.856 91.5263 286.73 91.5263 286.571C91.5263 286.395 91.4507 286.261 91.2997 286.168C91.1571 286.076 90.9641 286.005 90.7207 285.954C90.4774 285.904 90.2089 285.858 89.9152 285.816C89.6299 285.766 89.3404 285.707 89.0468 285.64C88.7531 285.564 88.4846 285.459 88.2412 285.325C87.9979 285.182 87.8007 284.994 87.6497 284.759C87.507 284.524 87.4357 284.217 87.4357 283.84C87.4357 283.496 87.5112 283.194 87.6623 282.934C87.8217 282.674 88.0357 282.46 88.3042 282.292C88.5811 282.124 88.8873 281.998 89.223 281.914C89.5586 281.83 89.9026 281.788 90.255 281.788H90.5445C90.8634 281.788 91.178 281.83 91.4885 281.914C91.799 281.99 92.08 282.103 92.3318 282.254C92.5835 282.405 92.7849 282.59 92.9359 282.808C93.0869 283.018 93.1625 283.252 93.1625 283.513C93.1625 283.563 93.1583 283.617 93.1499 283.676C93.1499 283.727 93.1499 283.769 93.1499 283.802H91.4759V283.701C91.4759 283.617 91.4507 283.534 91.4004 283.45C91.35 283.366 91.2745 283.294 91.1738 283.236C91.0731 283.169 90.9515 283.118 90.8088 283.085C90.6746 283.043 90.5152 283.022 90.3306 283.022C90.1795 283.022 90.0327 283.039 89.89 283.072C89.7474 283.097 89.6215 283.135 89.5125 283.185C89.4118 283.236 89.332 283.299 89.2733 283.374C89.2146 283.441 89.1852 283.517 89.1852 283.601C89.1852 283.769 89.2565 283.894 89.3992 283.978C89.5502 284.062 89.7474 284.129 89.9907 284.18C90.2425 284.222 90.5152 284.264 90.8088 284.306C91.1025 284.339 91.3962 284.394 91.6899 284.469C91.9836 284.536 92.2521 284.641 92.4954 284.784C92.7387 284.918 92.9359 285.107 93.0869 285.35C93.238 285.585 93.3135 285.896 93.3135 286.282C93.3135 286.693 93.2338 287.041 93.0744 287.326C92.9149 287.603 92.6968 287.825 92.4199 287.993C92.1514 288.161 91.8451 288.283 91.5011 288.358C91.1571 288.434 90.8004 288.472 90.4312 288.472H89.953ZM97.4639 288.472C96.8346 288.472 96.2766 288.35 95.7899 288.107C95.3117 287.855 94.9341 287.494 94.6572 287.024C94.3887 286.546 94.2544 285.971 94.2544 285.3V284.96C94.2544 284.28 94.3929 283.706 94.6698 283.236C94.9551 282.757 95.341 282.397 95.8277 282.153C96.3144 281.91 96.8724 281.788 97.5017 281.788H97.7408C98.345 281.788 98.8652 281.906 99.3015 282.141C99.7378 282.376 100.073 282.707 100.308 283.135C100.543 283.555 100.661 284.041 100.661 284.595V285.388H96.3563C96.3563 285.74 96.3941 286.055 96.4696 286.332C96.5535 286.609 96.6836 286.827 96.8598 286.986C97.0444 287.137 97.2835 287.213 97.5772 287.213C97.8373 287.213 98.0555 287.163 98.2317 287.062C98.4163 286.961 98.5589 286.819 98.6596 286.634C98.7603 286.441 98.8106 286.21 98.8106 285.942H100.648C100.648 286.428 100.518 286.865 100.258 287.251C100.006 287.628 99.6539 287.926 99.2008 288.144C98.7477 288.362 98.2191 288.472 97.6149 288.472H97.4639ZM96.3563 284.431H98.71C98.71 283.953 98.6051 283.605 98.3953 283.387C98.1855 283.16 97.9086 283.047 97.5646 283.047C97.2206 283.047 96.9353 283.164 96.7087 283.399C96.4906 283.634 96.3731 283.978 96.3563 284.431ZM101.956 288.346V281.914H103.441L103.667 282.846C103.692 282.812 103.739 282.741 103.806 282.632C103.881 282.514 103.99 282.392 104.133 282.267C104.276 282.132 104.452 282.019 104.662 281.927C104.871 281.834 105.119 281.788 105.404 281.788C105.832 281.788 106.18 281.868 106.449 282.027C106.717 282.187 106.915 282.418 107.04 282.72C107.175 283.013 107.242 283.366 107.242 283.777C107.242 283.869 107.238 283.978 107.229 284.104C107.221 284.222 107.212 284.331 107.204 284.431H105.568V284.154C105.568 284.012 105.538 283.869 105.48 283.727C105.429 283.584 105.345 283.471 105.228 283.387C105.11 283.294 104.951 283.248 104.75 283.248C104.599 283.248 104.469 283.278 104.36 283.336C104.25 283.395 104.162 283.475 104.095 283.576C104.028 283.668 103.978 283.773 103.944 283.89C103.919 283.999 103.906 284.113 103.906 284.23V288.346H101.956Z" fill="#060C3C"/>
<path d="M55.584 334.957V330.19H50.8405V327.642H55.584V322.874H58.1563V327.642H62.9233V330.19H58.1563V334.957H55.584ZM71.9904 334.957V331.158H64.9342V328.302C65.186 327.878 65.4613 327.366 65.7602 326.768C66.0749 326.155 66.3974 325.494 66.7278 324.786C67.0582 324.062 67.3807 323.323 67.6953 322.568C68.01 321.813 68.2932 321.089 68.5449 320.397C68.7966 319.704 69.0012 319.083 69.1585 318.532H72.5332C72.4073 319.114 72.2028 319.767 71.9196 320.491C71.6364 321.199 71.3139 321.938 70.952 322.709C70.5902 323.48 70.2047 324.228 69.7957 324.951C69.3866 325.659 68.9854 326.312 68.5921 326.91C68.2145 327.492 67.8605 327.964 67.5301 328.326H71.9904V324.904C72.1477 324.668 72.3287 324.361 72.5332 323.984C72.7377 323.59 72.9344 323.181 73.1232 322.756C73.3277 322.316 73.5086 321.891 73.6659 321.482C73.8233 321.073 73.9413 320.735 74.0199 320.467H75.5539V328.326H77.7722V331.158H75.5539V334.957H71.9904ZM79.8073 334.957V334.131C79.8073 333.187 79.9803 332.369 80.3264 331.677C80.6726 330.969 81.2232 330.34 81.9784 329.789L86.533 326.438C87.0208 326.076 87.3983 325.667 87.6658 325.211C87.9333 324.739 88.067 324.228 88.067 323.677C88.067 323 87.8703 322.473 87.477 322.096C87.0837 321.702 86.4858 321.506 85.6835 321.506C85.2115 321.506 84.7946 321.608 84.4327 321.813C84.0709 322.001 83.7798 322.277 83.5595 322.638C83.355 322.985 83.2528 323.378 83.2528 323.818C83.2528 323.929 83.2528 324.039 83.2528 324.149C83.2528 324.243 83.2606 324.338 83.2764 324.432H79.9017C79.9017 324.353 79.9017 324.283 79.9017 324.22C79.9017 324.141 79.9017 324.07 79.9017 324.007C79.9017 322.953 80.1377 322.017 80.6096 321.199C81.0974 320.381 81.7739 319.736 82.6392 319.264C83.5202 318.776 84.5586 318.532 85.7543 318.532H86.297C87.4455 318.532 88.4288 318.745 89.247 319.169C90.0808 319.594 90.718 320.184 91.1585 320.939C91.6147 321.695 91.8429 322.576 91.8429 323.582C91.8429 324.385 91.7013 325.093 91.4181 325.706C91.1506 326.32 90.7573 326.878 90.2381 327.382C89.7347 327.885 89.1447 328.373 88.4682 328.845L85.5183 330.922C85.4081 331 85.2901 331.087 85.1643 331.181C85.0542 331.276 84.9519 331.378 84.8575 331.488C84.7788 331.583 84.708 331.677 84.6451 331.771H91.8901V334.957H79.8073ZM100.061 335.193C99.0068 335.193 98.0471 334.942 97.1818 334.438C96.3165 333.935 95.6243 333.25 95.1051 332.385C94.6016 331.52 94.3499 330.552 94.3499 329.482V324.243C94.3499 323.158 94.6016 322.182 95.1051 321.317C95.6243 320.452 96.3165 319.775 97.1818 319.287C98.0471 318.784 99.0068 318.532 100.061 318.532H100.863C101.933 318.532 102.893 318.784 103.742 319.287C104.608 319.775 105.292 320.452 105.796 321.317C106.299 322.182 106.551 323.158 106.551 324.243V329.482C106.551 330.552 106.299 331.52 105.796 332.385C105.292 333.25 104.608 333.935 103.742 334.438C102.893 334.942 101.933 335.193 100.863 335.193H100.061ZM100.439 332.409C100.895 332.409 101.296 332.298 101.642 332.078C102.004 331.858 102.287 331.567 102.492 331.205C102.712 330.827 102.822 330.41 102.822 329.954V323.748C102.822 323.291 102.712 322.882 102.492 322.52C102.287 322.143 102.004 321.844 101.642 321.624C101.296 321.403 100.903 321.293 100.462 321.293C100.006 321.293 99.5968 321.403 99.2349 321.624C98.8888 321.844 98.6056 322.143 98.3854 322.52C98.1808 322.882 98.0786 323.291 98.0786 323.748V329.954C98.0786 330.41 98.1808 330.827 98.3854 331.205C98.6056 331.567 98.8888 331.858 99.2349 332.078C99.5968 332.298 99.998 332.409 100.439 332.409ZM109.601 334.957V332.031H113.471V322.827H109.601V320.656C110.23 320.609 110.906 320.483 111.63 320.279C112.37 320.074 113.101 319.822 113.825 319.523C114.564 319.209 115.249 318.878 115.878 318.532H117.152V332.031H120.928V334.957H109.601Z" fill="#060C3C"/>
<g filter="url(#filter2_d_0_369)">
<g filter="url(#filter3_d_0_369)">
<rect x="361.84" y="260.6" width="59.7847" height="59.7847" rx="4.71984" fill="white"/>
</g>
<path d="M435.996 269.571L398.96 304.652L386.15 282.372L344.019 311.772M435.996 269.571L422.16 269.577M435.996 269.571L434.857 283.173" stroke="#E1B30D" stroke-width="2.35992" stroke-linecap="round" stroke-linejoin="round"/>
</g>
<g filter="url(#filter4_d_0_369)">
<rect x="30.7337" y="93.4531" width="146.315" height="141.595" rx="4.71984" fill="white"/>
</g>
<path d="M83.2676 203.048C82.9508 202.709 82.3534 202.709 82.0366 203.048L78.8963 206.401C78.478 206.848 78.8463 207.514 79.5118 207.514L85.7924 207.514C86.4579 207.514 86.8262 206.848 86.4079 206.401L83.2676 203.048Z" fill="#38E7B2"/>
<path d="M94.6455 209.288V208.374H96.6389V203.011H94.6455V202.339C94.8878 202.317 95.1558 202.276 95.4495 202.218C95.7431 202.152 96.0515 202.071 96.3745 201.975C96.7049 201.873 97.028 201.755 97.3437 201.623H97.7512V208.374H99.7225V209.288H94.6455ZM103.789 209.398C103.275 209.398 102.82 209.317 102.423 209.156C102.027 208.994 101.718 208.756 101.498 208.44C101.278 208.117 101.168 207.721 101.168 207.251C101.168 206.766 101.285 206.381 101.52 206.094C101.755 205.801 102.06 205.577 102.434 205.423V205.378C102.141 205.232 101.898 205.03 101.707 204.773C101.517 204.508 101.421 204.156 101.421 203.716C101.421 203.268 101.528 202.89 101.74 202.581C101.953 202.273 102.243 202.038 102.61 201.876C102.985 201.707 103.403 201.623 103.866 201.623C104.336 201.623 104.747 201.707 105.099 201.876C105.459 202.038 105.738 202.273 105.936 202.581C106.135 202.89 106.234 203.268 106.234 203.716C106.234 204.009 106.19 204.263 106.102 204.475C106.013 204.688 105.892 204.868 105.738 205.015C105.591 205.162 105.419 205.283 105.221 205.378V205.423C105.602 205.606 105.911 205.834 106.146 206.105C106.381 206.37 106.498 206.751 106.498 207.251C106.498 207.691 106.388 208.073 106.168 208.396C105.955 208.719 105.646 208.969 105.243 209.145C104.846 209.314 104.362 209.398 103.789 209.398ZM103.833 208.561C104.354 208.561 104.74 208.436 104.989 208.187C105.246 207.937 105.375 207.599 105.375 207.174C105.375 206.74 105.239 206.403 104.967 206.16C104.696 205.918 104.317 205.797 103.833 205.797C103.348 205.797 102.97 205.922 102.699 206.171C102.434 206.421 102.302 206.755 102.302 207.174C102.302 207.599 102.427 207.937 102.677 208.187C102.926 208.436 103.312 208.561 103.833 208.561ZM103.822 205.048C104.211 205.048 104.534 204.938 104.791 204.718C105.055 204.49 105.188 204.167 105.188 203.749C105.188 203.33 105.063 203.011 104.813 202.79C104.571 202.563 104.24 202.449 103.822 202.449C103.403 202.449 103.073 202.563 102.831 202.79C102.588 203.018 102.467 203.337 102.467 203.749C102.467 204.167 102.596 204.49 102.853 204.718C103.117 204.938 103.44 205.048 103.822 205.048ZM108.042 210.808V210.676C108.233 210.455 108.376 210.232 108.472 210.004C108.567 209.776 108.615 209.538 108.615 209.288H108.086V207.867H109.287V209.09C109.287 209.406 109.236 209.71 109.133 210.004C109.037 210.298 108.883 210.566 108.67 210.808H108.042ZM110.739 209.288V208.947C110.739 208.484 110.838 208.088 111.037 207.757C111.235 207.427 111.521 207.13 111.896 206.865L113.999 205.412C114.241 205.243 114.447 205.037 114.616 204.795C114.785 204.553 114.869 204.263 114.869 203.925C114.869 203.492 114.741 203.154 114.484 202.912C114.234 202.669 113.867 202.548 113.382 202.548C113.089 202.548 112.824 202.614 112.59 202.746C112.362 202.879 112.182 203.058 112.05 203.286C111.918 203.514 111.852 203.771 111.852 204.057C111.852 204.108 111.852 204.156 111.852 204.2C111.852 204.244 111.855 204.288 111.863 204.332H110.816C110.816 204.281 110.816 204.244 110.816 204.222C110.816 204.193 110.816 204.163 110.816 204.134C110.816 203.642 110.927 203.209 111.147 202.834C111.374 202.453 111.683 202.155 112.072 201.942C112.468 201.73 112.92 201.623 113.426 201.623H113.559C114.073 201.623 114.509 201.719 114.869 201.909C115.236 202.1 115.515 202.365 115.706 202.702C115.904 203.033 116.004 203.426 116.004 203.881C116.004 204.263 115.937 204.597 115.805 204.883C115.68 205.169 115.508 205.419 115.288 205.632C115.075 205.845 114.832 206.043 114.561 206.226L112.601 207.581C112.49 207.654 112.395 207.739 112.314 207.834C112.233 207.922 112.171 208.011 112.127 208.099C112.09 208.179 112.065 208.253 112.05 208.319H116.037V209.288H110.739ZM117.779 209.288V208.374H119.773V203.011H117.779V202.339C118.021 202.317 118.289 202.276 118.583 202.218C118.877 202.152 119.185 202.071 119.508 201.975C119.839 201.873 120.162 201.755 120.477 201.623H120.885V208.374H122.856V209.288H117.779ZM124.775 209.288L129.367 201.733H130.149L125.568 209.288H124.775ZM125.249 205.588C124.992 205.588 124.764 205.529 124.566 205.412C124.368 205.287 124.21 205.122 124.092 204.916C123.982 204.71 123.927 204.486 123.927 204.244V203.066C123.927 202.823 123.982 202.603 124.092 202.405C124.21 202.199 124.368 202.038 124.566 201.92C124.764 201.796 124.992 201.733 125.249 201.733H125.348C125.619 201.733 125.851 201.796 126.041 201.92C126.24 202.038 126.394 202.199 126.504 202.405C126.622 202.603 126.68 202.823 126.68 203.066V204.244C126.68 204.486 126.622 204.71 126.504 204.916C126.394 205.122 126.24 205.287 126.041 205.412C125.851 205.529 125.623 205.588 125.359 205.588H125.249ZM125.304 204.982C125.517 204.982 125.678 204.92 125.788 204.795C125.898 204.67 125.953 204.512 125.953 204.321V202.989C125.953 202.805 125.898 202.651 125.788 202.526C125.678 202.401 125.517 202.339 125.304 202.339C125.105 202.339 124.948 202.401 124.83 202.526C124.713 202.651 124.654 202.805 124.654 202.989V204.321C124.654 204.512 124.713 204.67 124.83 204.795C124.948 204.92 125.105 204.982 125.304 204.982ZM129.544 209.299C129.287 209.299 129.059 209.24 128.861 209.123C128.663 208.998 128.505 208.833 128.387 208.627C128.277 208.422 128.222 208.198 128.222 207.956V206.777C128.222 206.535 128.277 206.315 128.387 206.116C128.505 205.911 128.663 205.749 128.861 205.632C129.059 205.507 129.287 205.445 129.544 205.445H129.643C129.914 205.445 130.146 205.507 130.337 205.632C130.535 205.749 130.689 205.911 130.799 206.116C130.917 206.315 130.975 206.535 130.975 206.777V207.956C130.975 208.198 130.917 208.422 130.799 208.627C130.689 208.833 130.535 208.998 130.337 209.123C130.146 209.24 129.918 209.299 129.654 209.299H129.544ZM129.599 208.693C129.812 208.693 129.973 208.631 130.083 208.506C130.193 208.374 130.248 208.216 130.248 208.033V206.7C130.248 206.516 130.193 206.362 130.083 206.237C129.973 206.113 129.812 206.05 129.599 206.05C129.4 206.05 129.243 206.113 129.125 206.237C129.008 206.362 128.949 206.516 128.949 206.7V208.033C128.949 208.216 129.008 208.374 129.125 208.506C129.243 208.631 129.4 208.693 129.599 208.693Z" fill="#38E7B2"/>
<path d="M66.7531 178.462V169.828H72.4672L72.3036 170.885H68.0872V173.528H71.9008V174.585H68.0872V177.405H72.3791L72.5553 178.462H66.7531ZM74.0874 178.462V172.03H74.9936L75.1698 172.974C75.4048 172.622 75.7068 172.358 76.076 172.181C76.4536 171.997 76.8606 171.904 77.2969 171.904C77.7416 171.904 78.1318 171.988 78.4674 172.156C78.8114 172.324 79.0799 172.576 79.2729 172.911C79.4659 173.239 79.5624 173.65 79.5624 174.145V178.462H78.3038V174.359C78.3038 173.83 78.1821 173.453 77.9388 173.226C77.6955 172.991 77.3514 172.874 76.9067 172.874C76.6214 172.874 76.3571 172.945 76.1138 173.088C75.8788 173.23 75.6901 173.423 75.5474 173.667C75.4132 173.901 75.346 174.174 75.346 174.485V178.462H74.0874ZM82.6552 180.828C82.3615 180.828 82.093 180.757 81.8497 180.614C81.6147 180.472 81.4259 180.279 81.2833 180.035C81.1407 179.8 81.0693 179.544 81.0693 179.267C81.0693 178.965 81.1532 178.68 81.3211 178.412C81.4889 178.143 81.7196 177.946 82.0133 177.82C81.8287 177.703 81.6819 177.552 81.5728 177.367C81.4721 177.182 81.4217 176.985 81.4217 176.775C81.4217 176.465 81.5182 176.205 81.7112 175.995C81.9042 175.777 82.1559 175.613 82.4664 175.504C82.2063 175.328 81.9965 175.122 81.8371 174.887C81.6777 174.644 81.598 174.359 81.598 174.032C81.598 173.671 81.6903 173.331 81.8748 173.012C82.0678 172.685 82.3573 172.421 82.7433 172.219C83.1293 172.009 83.6118 171.904 84.1907 171.904C84.4592 171.904 84.7026 171.921 84.9207 171.955C85.1473 171.988 85.3487 172.043 85.5249 172.118C85.8437 171.984 86.0912 171.808 86.2674 171.59C86.4437 171.372 86.5443 171.133 86.5695 170.872H87.6016C87.6016 171.141 87.5471 171.388 87.438 171.615C87.3373 171.842 87.1904 172.03 86.9975 172.181C86.8045 172.332 86.5737 172.437 86.3052 172.496L86.2926 172.534C86.4856 172.702 86.6366 172.899 86.7457 173.125C86.8632 173.352 86.9219 173.604 86.9219 173.881C86.9219 174.25 86.8254 174.594 86.6325 174.913C86.4395 175.223 86.1584 175.475 85.7892 175.668C85.4284 175.852 84.9795 175.945 84.4424 175.945H83.4607C83.2006 175.945 82.9908 176.008 82.8314 176.133C82.672 176.259 82.5923 176.427 82.5923 176.637C82.5923 176.838 82.6678 177.002 82.8188 177.128C82.9782 177.254 83.1922 177.317 83.4607 177.317H85.8899C86.4185 177.317 86.8338 177.48 87.1359 177.807C87.4464 178.126 87.6016 178.521 87.6016 178.991C87.6016 179.326 87.5177 179.632 87.3499 179.909C87.1904 180.195 86.9639 180.417 86.6702 180.576C86.3849 180.744 86.0493 180.828 85.6633 180.828H82.6552ZM83.058 179.972H85.4745C85.7262 179.972 85.9444 179.884 86.129 179.708C86.322 179.532 86.4185 179.318 86.4185 179.066C86.4185 178.856 86.3388 178.672 86.1793 178.512C86.0283 178.353 85.8437 178.273 85.6256 178.273H83.058C82.8146 178.273 82.609 178.357 82.4412 178.525C82.2734 178.693 82.1895 178.894 82.1895 179.129C82.1895 179.356 82.2734 179.553 82.4412 179.721C82.609 179.888 82.8146 179.972 83.058 179.972ZM84.2536 175.164C84.7151 175.164 85.076 175.043 85.3361 174.799C85.5962 174.556 85.7262 174.266 85.7262 173.931C85.7262 173.595 85.5962 173.306 85.3361 173.062C85.076 172.811 84.7151 172.685 84.2536 172.685C83.7922 172.685 83.4313 172.811 83.1712 173.062C82.9195 173.306 82.7936 173.595 82.7936 173.931C82.7936 174.266 82.9195 174.556 83.1712 174.799C83.4313 175.043 83.7922 175.164 84.2536 175.164ZM90.4734 178.588C90.1294 178.588 89.798 178.533 89.4791 178.424C89.1686 178.315 88.9127 178.13 88.7113 177.87C88.5184 177.602 88.4219 177.241 88.4219 176.788C88.4219 176.326 88.5226 175.957 88.7239 175.68C88.9337 175.395 89.2274 175.177 89.605 175.026C89.9909 174.875 90.4482 174.774 90.9769 174.724C91.5139 174.673 92.1012 174.648 92.7389 174.648V173.994C92.7389 173.541 92.6257 173.226 92.3991 173.05C92.181 172.865 91.8327 172.773 91.3545 172.773C90.9517 172.773 90.6035 172.861 90.3098 173.037C90.0161 173.205 89.8693 173.474 89.8693 173.843V173.994H88.6484C88.64 173.952 88.6358 173.91 88.6358 173.868C88.6358 173.818 88.6358 173.767 88.6358 173.717C88.6358 173.348 88.7491 173.029 88.9757 172.76C89.2106 172.483 89.5253 172.274 89.9196 172.131C90.3224 171.98 90.7797 171.904 91.2915 171.904H91.4677C92.3152 171.904 92.9445 172.072 93.3557 172.408C93.7752 172.744 93.985 173.226 93.985 173.855V177.266C93.985 177.417 94.0185 177.526 94.0857 177.593C94.1528 177.661 94.2325 177.694 94.3248 177.694C94.4171 177.694 94.5136 177.677 94.6143 177.644C94.7234 177.61 94.8199 177.568 94.9038 177.518V178.323C94.7947 178.407 94.6604 178.47 94.501 178.512C94.3416 178.563 94.1528 178.588 93.9346 178.588C93.6661 178.588 93.448 178.537 93.2802 178.437C93.1207 178.328 93.0033 178.185 92.9277 178.009C92.8522 177.833 92.8061 177.635 92.7893 177.417C92.546 177.795 92.2271 178.084 91.8327 178.286C91.4468 178.487 90.9936 178.588 90.4734 178.588ZM90.9769 177.694C91.2705 177.694 91.5516 177.631 91.8201 177.505C92.0887 177.371 92.3068 177.17 92.4746 176.901C92.6508 176.633 92.7389 176.297 92.7389 175.894V175.416C92.1096 175.416 91.5684 175.45 91.1153 175.517C90.6622 175.575 90.314 175.693 90.0707 175.869C89.8357 176.045 89.7182 176.318 89.7182 176.687C89.7182 177.04 89.8231 177.296 90.0329 177.455C90.2427 177.614 90.5573 177.694 90.9769 177.694ZM97.4293 180.828C97.1356 180.828 96.8671 180.757 96.6238 180.614C96.3888 180.472 96.2 180.279 96.0574 180.035C95.9147 179.8 95.8434 179.544 95.8434 179.267C95.8434 178.965 95.9273 178.68 96.0951 178.412C96.263 178.143 96.4937 177.946 96.7874 177.82C96.6028 177.703 96.4559 177.552 96.3469 177.367C96.2462 177.182 96.1958 176.985 96.1958 176.775C96.1958 176.465 96.2923 176.205 96.4853 175.995C96.6783 175.777 96.93 175.613 97.2405 175.504C96.9804 175.328 96.7706 175.122 96.6112 174.887C96.4518 174.644 96.372 174.359 96.372 174.032C96.372 173.671 96.4643 173.331 96.6489 173.012C96.8419 172.685 97.1314 172.421 97.5174 172.219C97.9034 172.009 98.3858 171.904 98.9648 171.904C99.2333 171.904 99.4766 171.921 99.6948 171.955C99.9214 171.988 100.123 172.043 100.299 172.118C100.618 171.984 100.865 171.808 101.042 171.59C101.218 171.372 101.318 171.133 101.344 170.872H102.376C102.376 171.141 102.321 171.388 102.212 171.615C102.111 171.842 101.965 172.03 101.772 172.181C101.579 172.332 101.348 172.437 101.079 172.496L101.067 172.534C101.26 172.702 101.411 172.899 101.52 173.125C101.637 173.352 101.696 173.604 101.696 173.881C101.696 174.25 101.6 174.594 101.407 174.913C101.214 175.223 100.932 175.475 100.563 175.668C100.202 175.852 99.7535 175.945 99.2165 175.945H98.2348C97.9747 175.945 97.7649 176.008 97.6055 176.133C97.4461 176.259 97.3664 176.427 97.3664 176.637C97.3664 176.838 97.4419 177.002 97.5929 177.128C97.7523 177.254 97.9663 177.317 98.2348 177.317H100.664C101.193 177.317 101.608 177.48 101.91 177.807C102.22 178.126 102.376 178.521 102.376 178.991C102.376 179.326 102.292 179.632 102.124 179.909C101.965 180.195 101.738 180.417 101.444 180.576C101.159 180.744 100.823 180.828 100.437 180.828H97.4293ZM97.832 179.972H100.249C100.5 179.972 100.718 179.884 100.903 179.708C101.096 179.532 101.193 179.318 101.193 179.066C101.193 178.856 101.113 178.672 100.953 178.512C100.802 178.353 100.618 178.273 100.4 178.273H97.832C97.5887 178.273 97.3831 178.357 97.2153 178.525C97.0475 178.693 96.9636 178.894 96.9636 179.129C96.9636 179.356 97.0475 179.553 97.2153 179.721C97.3831 179.888 97.5887 179.972 97.832 179.972ZM99.0277 175.164C99.4892 175.164 99.85 175.043 100.11 174.799C100.37 174.556 100.5 174.266 100.5 173.931C100.5 173.595 100.37 173.306 100.11 173.062C99.85 172.811 99.4892 172.685 99.0277 172.685C98.5662 172.685 98.2054 172.811 97.9453 173.062C97.6936 173.306 97.5677 173.595 97.5677 173.931C97.5677 174.266 97.6936 174.556 97.9453 174.799C98.2054 175.043 98.5662 175.164 99.0277 175.164ZM106.191 178.588C105.621 178.588 105.117 178.466 104.681 178.223C104.253 177.971 103.918 177.606 103.674 177.128C103.431 176.641 103.309 176.058 103.309 175.378V175.114C103.309 174.426 103.435 173.843 103.687 173.364C103.947 172.886 104.299 172.525 104.744 172.282C105.189 172.03 105.696 171.904 106.267 171.904H106.405C106.926 171.904 107.387 172.014 107.79 172.232C108.193 172.45 108.503 172.76 108.721 173.163C108.948 173.566 109.061 174.044 109.061 174.598V175.403H104.618C104.618 175.882 104.681 176.293 104.807 176.637C104.941 176.981 105.13 177.245 105.373 177.43C105.625 177.606 105.931 177.694 106.292 177.694C106.594 177.694 106.863 177.635 107.098 177.518C107.333 177.4 107.521 177.22 107.664 176.977C107.807 176.733 107.878 176.431 107.878 176.071H109.061C109.061 176.582 108.939 177.027 108.696 177.405C108.453 177.782 108.121 178.076 107.702 178.286C107.291 178.487 106.825 178.588 106.305 178.588H106.191ZM104.631 174.648H107.828C107.828 174.019 107.689 173.553 107.412 173.251C107.144 172.949 106.766 172.798 106.28 172.798C105.835 172.798 105.453 172.953 105.134 173.264C104.824 173.574 104.656 174.036 104.631 174.648ZM110.789 178.462V172.03H111.72L111.909 172.974C112.119 172.639 112.379 172.379 112.69 172.194C113 172.001 113.357 171.904 113.759 171.904C114.179 171.904 114.552 171.988 114.88 172.156C115.207 172.324 115.463 172.593 115.647 172.962C115.832 172.651 116.088 172.4 116.415 172.207C116.751 172.005 117.145 171.904 117.598 171.904C118.009 171.904 118.374 171.988 118.693 172.156C119.012 172.324 119.26 172.576 119.436 172.911C119.62 173.239 119.713 173.65 119.713 174.145V178.462H118.467V174.422C118.467 173.885 118.358 173.495 118.139 173.251C117.93 173.008 117.628 172.886 117.233 172.886C116.973 172.886 116.738 172.953 116.528 173.088C116.327 173.222 116.168 173.411 116.05 173.654C115.941 173.897 115.887 174.17 115.887 174.472V178.462H114.628V174.422C114.628 173.885 114.519 173.495 114.301 173.251C114.091 173.008 113.785 172.886 113.382 172.886C113.122 172.886 112.891 172.953 112.69 173.088C112.488 173.222 112.329 173.411 112.211 173.654C112.102 173.897 112.048 174.17 112.048 174.472V178.462H110.789ZM124.333 178.588C123.763 178.588 123.259 178.466 122.823 178.223C122.395 177.971 122.059 177.606 121.816 177.128C121.573 176.641 121.451 176.058 121.451 175.378V175.114C121.451 174.426 121.577 173.843 121.829 173.364C122.089 172.886 122.441 172.525 122.886 172.282C123.331 172.03 123.838 171.904 124.409 171.904H124.547C125.068 171.904 125.529 172.014 125.932 172.232C126.335 172.45 126.645 172.76 126.863 173.163C127.09 173.566 127.203 174.044 127.203 174.598V175.403H122.76C122.76 175.882 122.823 176.293 122.949 176.637C123.083 176.981 123.272 177.245 123.515 177.43C123.767 177.606 124.073 177.694 124.434 177.694C124.736 177.694 125.005 177.635 125.24 177.518C125.475 177.4 125.663 177.22 125.806 176.977C125.949 176.733 126.02 176.431 126.02 176.071H127.203C127.203 176.582 127.081 177.027 126.838 177.405C126.595 177.782 126.263 178.076 125.844 178.286C125.433 178.487 124.967 178.588 124.447 178.588H124.333ZM122.773 174.648H125.97C125.97 174.019 125.831 173.553 125.554 173.251C125.286 172.949 124.908 172.798 124.421 172.798C123.977 172.798 123.595 172.953 123.276 173.264C122.966 173.574 122.798 174.036 122.773 174.648ZM128.931 178.462V172.03H129.837L130.013 172.974C130.248 172.622 130.55 172.358 130.92 172.181C131.297 171.997 131.704 171.904 132.14 171.904C132.585 171.904 132.975 171.988 133.311 172.156C133.655 172.324 133.924 172.576 134.117 172.911C134.31 173.239 134.406 173.65 134.406 174.145V178.462H133.147V174.359C133.147 173.83 133.026 173.453 132.782 173.226C132.539 172.991 132.195 172.874 131.75 172.874C131.465 172.874 131.201 172.945 130.957 173.088C130.722 173.23 130.534 173.423 130.391 173.667C130.257 173.901 130.19 174.174 130.19 174.485V178.462H128.931ZM138.243 178.588C137.932 178.588 137.651 178.537 137.399 178.437C137.156 178.336 136.963 178.177 136.82 177.958C136.686 177.732 136.619 177.434 136.619 177.065V173.012H135.914V172.03H136.657L137.097 169.979H137.878V172.03H139.375V173.012H137.878V176.838C137.878 177.207 137.953 177.442 138.104 177.543C138.255 177.644 138.419 177.694 138.595 177.694C138.687 177.694 138.813 177.673 138.973 177.631C139.14 177.589 139.275 177.547 139.375 177.505V178.349C139.283 178.399 139.17 178.441 139.035 178.475C138.91 178.516 138.775 178.546 138.633 178.563C138.498 178.579 138.368 178.588 138.243 178.588Z" fill="#5D6180"/>
<path d="M58.8128 151.623C58.8128 149.777 59.0435 147.989 59.505 146.258C59.9665 144.528 60.5895 142.866 61.3741 141.274C62.1586 139.659 63.0239 138.124 63.97 136.671C64.9391 135.217 65.9083 133.855 66.8774 132.586H55.8361V127.879H73.1076V130.44C71.6539 132.333 70.3963 134.132 69.3349 135.84C68.2965 137.547 67.4428 139.232 66.7736 140.893C66.1275 142.555 65.6429 144.262 65.3199 146.016C65.0199 147.77 64.893 149.639 64.9391 151.623H58.8128ZM85.2992 151.969C83.684 151.969 82.2303 151.612 80.9381 150.896C79.669 150.158 78.6537 149.166 77.8922 147.92C77.1538 146.65 76.7846 145.208 76.7846 143.593V135.909C76.7846 134.271 77.1654 132.829 77.9268 131.583C78.6883 130.313 79.7151 129.321 81.0073 128.606C82.2995 127.891 83.7417 127.533 85.3338 127.533H86.0607C87.5605 127.533 88.9104 127.844 90.1103 128.468C91.3333 129.067 92.3024 129.956 93.0177 131.133C93.7561 132.286 94.1253 133.705 94.1253 135.39H89.1758C89.1758 134.236 88.8527 133.336 88.2066 132.69C87.5605 132.044 86.7529 131.721 85.7838 131.721C85.1146 131.721 84.5031 131.883 83.9493 132.206C83.4186 132.506 82.9917 132.921 82.6687 133.452C82.3687 133.959 82.2187 134.548 82.2187 135.217V138.713C82.8418 138.02 83.6032 137.49 84.5031 137.121C85.4261 136.751 86.3491 136.567 87.2721 136.567C88.6797 136.567 89.9372 136.844 91.0448 137.397C92.1755 137.951 93.0639 138.759 93.71 139.82C94.3561 140.882 94.6791 142.197 94.6791 143.766C94.6791 145.381 94.2868 146.812 93.5023 148.058C92.7408 149.281 91.7025 150.239 90.3872 150.931C89.0719 151.623 87.6182 151.969 86.0261 151.969H85.2992ZM85.7838 147.989C86.5683 147.989 87.2144 147.827 87.7221 147.504C88.2528 147.158 88.6451 146.685 88.8989 146.085C89.1758 145.462 89.3142 144.747 89.3142 143.939C89.3142 143.108 89.1758 142.393 88.8989 141.793C88.622 141.193 88.2182 140.732 87.6875 140.409C87.1567 140.086 86.5222 139.924 85.7838 139.924C85.0223 139.924 84.3762 140.086 83.8455 140.409C83.3148 140.732 82.911 141.193 82.6341 141.793C82.3572 142.393 82.2187 143.097 82.2187 143.905C82.2187 144.758 82.3572 145.497 82.6341 146.12C82.911 146.72 83.3148 147.181 83.8455 147.504C84.3993 147.827 85.0454 147.989 85.7838 147.989ZM98.2177 151.623V146.362H103.617V151.623H98.2177ZM116.126 151.969C114.396 151.969 112.873 151.715 111.558 151.208C110.242 150.677 109.216 149.904 108.477 148.889C107.762 147.873 107.404 146.616 107.404 145.116C107.404 143.662 107.739 142.497 108.408 141.62C109.1 140.72 110 140.028 111.108 139.543V139.405C110.277 138.874 109.585 138.228 109.031 137.467C108.477 136.705 108.2 135.655 108.2 134.317C108.2 132.84 108.569 131.606 109.308 130.613C110.046 129.598 111.039 128.837 112.285 128.329C113.531 127.798 114.915 127.533 116.438 127.533C117.961 127.533 119.322 127.798 120.522 128.329C121.745 128.837 122.703 129.598 123.395 130.613C124.11 131.606 124.468 132.84 124.468 134.317C124.468 135.217 124.33 135.99 124.053 136.636C123.799 137.259 123.453 137.79 123.014 138.228C122.599 138.667 122.114 139.059 121.561 139.405V139.543C122.668 140.051 123.557 140.743 124.226 141.62C124.918 142.474 125.264 143.639 125.264 145.116C125.264 146.57 124.883 147.816 124.122 148.854C123.36 149.869 122.299 150.642 120.938 151.173C119.576 151.704 117.972 151.969 116.126 151.969ZM116.334 148.196C117.511 148.196 118.376 147.873 118.93 147.227C119.484 146.581 119.761 145.704 119.761 144.597C119.761 143.489 119.461 142.635 118.861 142.035C118.261 141.412 117.419 141.101 116.334 141.101C115.227 141.101 114.373 141.424 113.773 142.07C113.196 142.693 112.908 143.547 112.908 144.631C112.908 145.762 113.196 146.639 113.773 147.262C114.35 147.885 115.203 148.196 116.334 148.196ZM116.334 137.917C117.28 137.917 118.042 137.628 118.619 137.051C119.219 136.451 119.518 135.621 119.518 134.559C119.518 133.498 119.23 132.679 118.653 132.102C118.076 131.525 117.292 131.236 116.3 131.236C115.307 131.236 114.523 131.536 113.946 132.136C113.392 132.713 113.115 133.521 113.115 134.559C113.115 135.644 113.415 136.474 114.015 137.051C114.615 137.628 115.388 137.917 116.334 137.917ZM130.568 151.623L145.036 127.879H147.943L133.51 151.623H130.568ZM132.195 139.959C131.41 139.959 130.695 139.774 130.049 139.405C129.403 139.013 128.895 138.493 128.526 137.847C128.157 137.201 127.972 136.498 127.972 135.736V132.136C127.972 131.352 128.157 130.637 128.526 129.99C128.895 129.344 129.403 128.837 130.049 128.468C130.695 128.075 131.41 127.879 132.195 127.879H132.783C133.591 127.879 134.306 128.075 134.929 128.468C135.575 128.837 136.083 129.344 136.452 129.99C136.821 130.637 137.006 131.352 137.006 132.136V135.736C137.006 136.498 136.821 137.201 136.452 137.847C136.083 138.493 135.575 139.013 134.929 139.405C134.306 139.774 133.591 139.959 132.783 139.959H132.195ZM132.506 137.709C132.991 137.709 133.371 137.559 133.648 137.259C133.948 136.936 134.098 136.544 134.098 136.082V131.756C134.098 131.294 133.948 130.913 133.648 130.613C133.371 130.29 132.991 130.129 132.506 130.129C132.045 130.129 131.652 130.29 131.329 130.613C131.029 130.913 130.879 131.294 130.879 131.756V136.082C130.879 136.544 131.029 136.936 131.329 137.259C131.652 137.559 132.045 137.709 132.506 137.709ZM145.693 151.658C144.909 151.658 144.194 151.462 143.547 151.069C142.901 150.677 142.394 150.158 142.025 149.512C141.655 148.866 141.471 148.162 141.471 147.4V143.801C141.471 143.016 141.655 142.301 142.025 141.655C142.394 141.009 142.901 140.501 143.547 140.132C144.194 139.74 144.909 139.543 145.693 139.543H146.282C147.089 139.543 147.805 139.74 148.428 140.132C149.074 140.501 149.582 141.009 149.951 141.655C150.32 142.301 150.504 143.016 150.504 143.801V147.4C150.504 148.162 150.32 148.866 149.951 149.512C149.582 150.158 149.074 150.677 148.428 151.069C147.805 151.462 147.089 151.658 146.282 151.658H145.693ZM146.005 149.408C146.489 149.408 146.87 149.246 147.147 148.923C147.447 148.6 147.597 148.208 147.597 147.746V143.455C147.597 142.97 147.447 142.578 147.147 142.278C146.87 141.955 146.489 141.793 146.005 141.793C145.543 141.793 145.151 141.955 144.828 142.278C144.528 142.578 144.378 142.97 144.378 143.455V147.746C144.378 148.208 144.528 148.6 144.828 148.923C145.151 149.246 145.543 149.408 146.005 149.408Z" fill="#060C3C"/>
<g filter="url(#filter5_d_0_369)">
<rect x="61.655" y="23.7532" width="56.1463" height="52.8914" rx="4.71984" fill="white"/>
</g>
<g clip-path="url(#clip0_0_369)">
<path d="M106.077 58.3895H101.967V44.7689C101.967 44.1359 101.454 43.6232 100.821 43.6232C100.188 43.6232 99.6749 44.1359 99.6749 44.7689V59.761C99.6749 60.4033 99.0355 60.9461 98.2747 60.9554C98.268 60.9552 98.2616 60.9544 98.255 60.9544C98.2426 60.9544 98.2305 60.9558 98.2181 60.9563H93.8255C93.8131 60.9558 93.8011 60.9544 93.7886 60.9544C93.7761 60.9544 93.7641 60.9558 93.7517 60.9563H89.3579C89.3455 60.9558 89.3335 60.9544 89.321 60.9544C89.3086 60.9544 89.2965 60.9558 89.2842 60.9563H84.8909C84.8785 60.9558 84.8665 60.9544 84.8541 60.9544C84.8416 60.9544 84.8296 60.9558 84.8172 60.9563H80.424C80.4116 60.9558 80.3996 60.9544 80.3871 60.9544C80.3805 60.9544 80.374 60.9553 80.3675 60.9554C79.606 60.9461 78.9672 60.4033 78.9672 59.761V41.4432C78.9672 40.7953 79.6176 40.2479 80.3871 40.2479H98.255C99.0246 40.2479 99.6749 40.7953 99.6749 41.4432V41.6679C99.6749 42.3008 100.188 42.8135 100.821 42.8135H106.077C106.71 42.8135 107.223 42.3008 107.223 41.6679C107.223 41.0349 106.71 40.5222 106.077 40.5222H101.835C101.505 39.3912 100.582 38.4888 99.4012 38.1277V34.4901C99.4012 33.8571 98.888 33.3445 98.2549 33.3445C97.622 33.3445 97.1093 33.8571 97.1093 34.4901V37.9567H94.9342V34.4901C94.9342 33.8571 94.4215 33.3445 93.7885 33.3445C93.1556 33.3445 92.6423 33.8571 92.6423 34.4901V37.9567H90.4665V34.4901C90.4665 33.8571 89.9533 33.3445 89.3209 33.3445C88.6885 33.3445 88.1753 33.8571 88.1753 34.4901V37.9567H85.9995V34.4901C85.9995 33.8571 85.4863 33.3445 84.8539 33.3445C84.2214 33.3445 83.7082 33.8571 83.7082 34.4901V37.9567H81.5324V34.4901C81.5324 33.8571 81.0198 33.3445 80.3868 33.3445C79.7538 33.3445 79.2412 33.8571 79.2412 34.4901V38.1274C78.0606 38.4883 77.1383 39.3907 76.8081 40.5216H72.5653C71.9329 40.5216 71.4197 41.0342 71.4197 41.6672C71.4197 42.3002 71.9329 42.8129 72.5653 42.8129H76.6761V58.3895H72.5653C71.9329 58.3895 71.4197 58.9021 71.4197 59.5351C71.4197 60.168 71.9329 60.6807 72.5653 60.6807H76.8083C77.1384 61.8116 78.0607 62.7144 79.2415 63.0754V66.7116C79.2415 67.3445 79.7541 67.8572 80.3871 67.8572C81.0195 67.8572 81.5327 67.3445 81.5327 66.7116V63.2462H83.7085V66.7115C83.7085 67.3445 84.2211 67.8571 84.8541 67.8571C85.4865 67.8571 85.9998 67.3445 85.9998 66.7115V63.2462H88.1755V66.7115C88.1755 67.3445 88.6882 67.8571 89.3212 67.8571C89.9541 67.8571 90.4668 67.3445 90.4668 66.7115V63.2462H92.6426V66.7115C92.6426 67.3445 93.1558 67.8571 93.7888 67.8571C94.4212 67.8571 94.9344 67.3445 94.9344 66.7115V63.2462H97.1096V66.7115C97.1096 67.3445 97.6222 67.8571 98.2552 67.8571C98.8882 67.8571 99.4015 67.3445 99.4015 66.7115V63.0753C100.582 62.7142 101.504 61.8116 101.835 60.6807H106.077C106.709 60.6807 107.223 60.168 107.223 59.5351C107.223 58.9021 106.71 58.3895 106.077 58.3895Z" fill="#37BFD7"/>
<path d="M106.077 53.9214H103.855C103.222 53.9214 102.71 54.434 102.71 55.067C102.71 55.7 103.222 56.2126 103.855 56.2126H106.077C106.709 56.2126 107.223 55.7 107.223 55.067C107.223 54.434 106.71 53.9214 106.077 53.9214Z" fill="#37BFD7"/>
<path d="M106.077 49.4551H103.855C103.222 49.4551 102.71 49.9677 102.71 50.6007C102.71 51.2337 103.222 51.7463 103.855 51.7463H106.077C106.709 51.7463 107.223 51.2337 107.223 50.6007C107.223 49.9677 106.71 49.4551 106.077 49.4551Z" fill="#37BFD7"/>
<path d="M106.077 44.9868H103.855C103.222 44.9868 102.71 45.4995 102.71 46.1324C102.71 46.7654 103.222 47.2781 103.855 47.2781H106.077C106.709 47.2781 107.223 46.7654 107.223 46.1324C107.223 45.4995 106.71 44.9868 106.077 44.9868Z" fill="#37BFD7"/>
<path d="M72.5653 56.2129H74.7876C75.42 56.2129 75.9333 55.7002 75.9333 55.0672C75.9333 54.4343 75.4206 53.9216 74.7876 53.9216H72.5653C71.9329 53.9216 71.4197 54.4349 71.4197 55.0672C71.4197 55.6996 71.9329 56.2129 72.5653 56.2129Z" fill="#37BFD7"/>
<path d="M72.5653 51.7457H74.7876C75.42 51.7457 75.9333 51.2337 75.9333 50.6007C75.9333 49.9677 75.4206 49.4551 74.7876 49.4551H72.5653C71.9329 49.4551 71.4197 49.9683 71.4197 50.6007C71.4197 51.2331 71.9329 51.7457 72.5653 51.7457Z" fill="#37BFD7"/>
<path d="M72.5653 47.2781H74.7876C75.42 47.2781 75.9333 46.7654 75.9333 46.1324C75.9333 45.4995 75.4206 44.9868 74.7876 44.9868H72.5653C71.9329 44.9868 71.4197 45.4995 71.4197 46.1324C71.4197 46.7654 71.9329 47.2781 72.5653 47.2781Z" fill="#37BFD7"/>
<path d="M85.6206 44.606C85.1483 44.606 84.7245 44.8952 84.5531 45.3352L80.7707 55.0343C80.541 55.6245 80.8322 56.2885 81.4217 56.5181C82.0119 56.7477 82.6759 56.4561 82.9055 55.8671L83.5057 54.328H87.7355L88.3356 55.8671C88.5119 56.3201 88.9444 56.5969 89.403 56.5969C89.5414 56.5969 89.6823 56.5714 89.8194 56.5181C90.4084 56.2884 90.7006 55.6238 90.4704 55.0343L86.688 45.3352C86.5161 44.8952 86.0929 44.606 85.6206 44.606ZM84.3991 52.0369L85.6206 48.9047L86.842 52.0369H84.3991Z" fill="#37BFD7"/>
<path d="M95.8053 46.8972C96.4377 46.8972 96.9516 46.3846 96.9516 45.7516C96.9516 45.1186 96.4384 44.606 95.8053 44.606H92.5975C91.9646 44.606 91.4519 45.1186 91.4519 45.7516C91.4519 46.3846 91.9646 46.8972 92.5975 46.8972H93.0556V54.3057H92.5975C91.9646 54.3057 91.4519 54.8184 91.4519 55.4513C91.4519 56.0843 91.9646 56.597 92.5975 56.597H95.8053C96.4377 56.597 96.9516 56.0843 96.9516 55.4513C96.9516 54.8184 96.4384 54.3057 95.8053 54.3057H95.3479V46.8972H95.8053Z" fill="#37BFD7"/>
</g>
<defs>
<filter id="filter0_d_0_369" x="172.329" y="38.7797" width="261.951" height="232.845" filterUnits="userSpaceOnUse" color-interpolation-filters="sRGB">
<feFlood flood-opacity="0" result="BackgroundImageFix"/>
<feColorMatrix in="SourceAlpha" type="matrix" values="0 0 0 0 0 0 0 0 0 0 0 0 0 0 0 0 0 0 127 0" result="hardAlpha"/>
<feMorphology radius="1.57328" operator="erode" in="SourceAlpha" result="effect1_dropShadow_0_369"/>
<feOffset dy="6.29312"/>
<feGaussianBlur stdDeviation="15.7328"/>
<feColorMatrix type="matrix" values="0 0 0 0 0.0235294 0 0 0 0 0.0470588 0 0 0 0 0.231373 0 0 0 0.08 0"/>
<feBlend mode="normal" in2="BackgroundImageFix" result="effect1_dropShadow_0_369"/>
<feBlend mode="normal" in="SourceGraphic" in2="effect1_dropShadow_0_369" result="shape"/>
</filter>
<filter id="filter1_d_0_369" x="0.841374" y="237.013" width="365.001" height="177.781" filterUnits="userSpaceOnUse" color-interpolation-filters="sRGB">
<feFlood flood-opacity="0" result="BackgroundImageFix"/>
<feColorMatrix in="SourceAlpha" type="matrix" values="0 0 0 0 0 0 0 0 0 0 0 0 0 0 0 0 0 0 127 0" result="hardAlpha"/>
<feMorphology radius="1.57328" operator="erode" in="SourceAlpha" result="effect1_dropShadow_0_369"/>
<feOffset dy="6.29312"/>
<feGaussianBlur stdDeviation="15.7328"/>
<feColorMatrix type="matrix" values="0 0 0 0 0.0235294 0 0 0 0 0.0470588 0 0 0 0 0.231373 0 0 0 0.08 0"/>
<feBlend mode="normal" in2="BackgroundImageFix" result="effect1_dropShadow_0_369"/>
<feBlend mode="normal" in="SourceGraphic" in2="effect1_dropShadow_0_369" result="shape"/>
</filter>
<filter id="filter2_d_0_369" x="327.106" y="244.093" width="127.627" height="101.202" filterUnits="userSpaceOnUse" color-interpolation-filters="sRGB">
<feFlood flood-opacity="0" result="BackgroundImageFix"/>
<feColorMatrix in="SourceAlpha" type="matrix" values="0 0 0 0 0 0 0 0 0 0 0 0 0 0 0 0 0 0 127 0" result="hardAlpha"/>
<feOffset dy="4.71984"/>
<feGaussianBlur stdDeviation="7.8664"/>
<feColorMatrix type="matrix" values="0 0 0 0 0.11 0 0 0 0 0.14137 0 0 0 0 0.4125 0 0 0 0.05 0"/>
<feBlend mode="normal" in2="BackgroundImageFix" result="effect1_dropShadow_0_369"/>
<feBlend mode="normal" in="SourceGraphic" in2="effect1_dropShadow_0_369" result="shape"/>
</filter>
<filter id="filter3_d_0_369" x="331.947" y="237.001" width="119.569" height="119.569" filterUnits="userSpaceOnUse" color-interpolation-filters="sRGB">
<feFlood flood-opacity="0" result="BackgroundImageFix"/>
<feColorMatrix in="SourceAlpha" type="matrix" values="0 0 0 0 0 0 0 0 0 0 0 0 0 0 0 0 0 0 127 0" result="hardAlpha"/>
<feMorphology radius="1.57328" operator="erode" in="SourceAlpha" result="effect1_dropShadow_0_369"/>
<feOffset dy="6.29312"/>
<feGaussianBlur stdDeviation="15.7328"/>
<feColorMatrix type="matrix" values="0 0 0 0 0.0235294 0 0 0 0 0.0470588 0 0 0 0 0.231373 0 0 0 0.08 0"/>
<feBlend mode="normal" in2="BackgroundImageFix" result="effect1_dropShadow_0_369"/>
<feBlend mode="normal" in="SourceGraphic" in2="effect1_dropShadow_0_369" result="shape"/>
</filter>
<filter id="filter4_d_0_369" x="0.841374" y="69.8539" width="206.1" height="201.38" filterUnits="userSpaceOnUse" color-interpolation-filters="sRGB">
<feFlood flood-opacity="0" result="BackgroundImageFix"/>
<feColorMatrix in="SourceAlpha" type="matrix" values="0 0 0 0 0 0 0 0 0 0 0 0 0 0 0 0 0 0 127 0" result="hardAlpha"/>
<feMorphology radius="1.57328" operator="erode" in="SourceAlpha" result="effect1_dropShadow_0_369"/>
<feOffset dy="6.29312"/>
<feGaussianBlur stdDeviation="15.7328"/>
<feColorMatrix type="matrix" values="0 0 0 0 0.0235294 0 0 0 0 0.0470588 0 0 0 0 0.231373 0 0 0 0.08 0"/>
<feBlend mode="normal" in2="BackgroundImageFix" result="effect1_dropShadow_0_369"/>
<feBlend mode="normal" in="SourceGraphic" in2="effect1_dropShadow_0_369" result="shape"/>
</filter>
<filter id="filter5_d_0_369" x="31.7627" y="0.153966" width="115.931" height="112.676" filterUnits="userSpaceOnUse" color-interpolation-filters="sRGB">
<feFlood flood-opacity="0" result="BackgroundImageFix"/>
<feColorMatrix in="SourceAlpha" type="matrix" values="0 0 0 0 0 0 0 0 0 0 0 0 0 0 0 0 0 0 127 0" result="hardAlpha"/>
<feMorphology radius="1.57328" operator="erode" in="SourceAlpha" result="effect1_dropShadow_0_369"/>
<feOffset dy="6.29312"/>
<feGaussianBlur stdDeviation="15.7328"/>
<feColorMatrix type="matrix" values="0 0 0 0 0.0235294 0 0 0 0 0.0470588 0 0 0 0 0.231373 0 0 0 0.08 0"/>
<feBlend mode="normal" in2="BackgroundImageFix" result="effect1_dropShadow_0_369"/>
<feBlend mode="normal" in="SourceGraphic" in2="effect1_dropShadow_0_369" result="shape"/>
</filter>
<clipPath id="clip0_0_369">
<rect width="35.8034" height="35.8034" fill="white" transform="translate(71.4197 32.7036)"/>
</clipPath>
</defs>
</svg>
