<svg width="487" height="438" viewBox="0 0 487 438" fill="none" xmlns="http://www.w3.org/2000/svg">
<rect x="3" y="126.854" width="464" height="311" rx="6" fill="url(#paint0_linear_0_448)"/>
<path d="M59.0845 198.521V196.289H62.0365V189.269H59.0845V187.613C59.5645 187.577 60.0805 187.481 60.6325 187.325C61.1965 187.169 61.7545 186.977 62.3065 186.749C62.8705 186.509 63.3925 186.257 63.8725 185.993H64.8445V196.289H67.7245V198.521H59.0845ZM69.5828 198.521V197.891C69.5828 197.171 69.7148 196.547 69.9788 196.019C70.2428 195.479 70.6628 194.999 71.2388 194.579L74.7128 192.023C75.0848 191.747 75.3728 191.435 75.5768 191.087C75.7808 190.727 75.8828 190.337 75.8828 189.917C75.8828 189.401 75.7328 188.999 75.4328 188.711C75.1328 188.411 74.6768 188.261 74.0648 188.261C73.7048 188.261 73.3868 188.339 73.1108 188.495C72.8348 188.639 72.6128 188.849 72.4448 189.125C72.2888 189.389 72.2108 189.689 72.2108 190.025C72.2108 190.109 72.2108 190.193 72.2108 190.277C72.2108 190.349 72.2168 190.421 72.2288 190.493H69.6548C69.6548 190.433 69.6548 190.379 69.6548 190.331C69.6548 190.271 69.6548 190.217 69.6548 190.169C69.6548 189.365 69.8348 188.651 70.1948 188.027C70.5668 187.403 71.0828 186.911 71.7428 186.551C72.4148 186.179 73.2068 185.993 74.1188 185.993H74.5328C75.4088 185.993 76.1588 186.155 76.7828 186.479C77.4188 186.803 77.9048 187.253 78.2408 187.829C78.5888 188.405 78.7628 189.077 78.7628 189.845C78.7628 190.457 78.6548 190.997 78.4388 191.465C78.2348 191.933 77.9348 192.359 77.5388 192.743C77.1548 193.127 76.7048 193.499 76.1888 193.859L73.9388 195.443C73.8548 195.503 73.7648 195.569 73.6688 195.641C73.5848 195.713 73.5068 195.791 73.4348 195.875C73.3748 195.947 73.3208 196.019 73.2728 196.091H78.7988V198.521H69.5828ZM80.909 201.617V201.275C81.329 200.831 81.641 200.381 81.845 199.925C82.049 199.469 82.151 198.995 82.151 198.503H80.909V195.479H83.681V198.035C83.681 198.719 83.567 199.361 83.339 199.961C83.123 200.573 82.793 201.125 82.349 201.617H80.909ZM90.1504 198.701C89.3104 198.701 88.5544 198.515 87.8824 198.143C87.2224 197.759 86.6944 197.243 86.2984 196.595C85.9144 195.935 85.7224 195.185 85.7224 194.345V190.349C85.7224 189.497 85.9204 188.747 86.3164 188.099C86.7124 187.439 87.2464 186.923 87.9184 186.551C88.5904 186.179 89.3404 185.993 90.1684 185.993H90.5464C91.3264 185.993 92.0284 186.155 92.6524 186.479C93.2884 186.791 93.7924 187.253 94.1644 187.865C94.5484 188.465 94.7404 189.203 94.7404 190.079H92.1664C92.1664 189.479 91.9984 189.011 91.6624 188.675C91.3264 188.339 90.9064 188.171 90.4024 188.171C90.0544 188.171 89.7364 188.255 89.4484 188.423C89.1724 188.579 88.9504 188.795 88.7824 189.071C88.6264 189.335 88.5484 189.641 88.5484 189.989V191.807C88.8724 191.447 89.2684 191.171 89.7364 190.979C90.2164 190.787 90.6964 190.691 91.1764 190.691C91.9084 190.691 92.5624 190.835 93.1384 191.123C93.7264 191.411 94.1884 191.831 94.5244 192.383C94.8604 192.935 95.0284 193.619 95.0284 194.435C95.0284 195.275 94.8244 196.019 94.4164 196.667C94.0204 197.303 93.4804 197.801 92.7964 198.161C92.1124 198.521 91.3564 198.701 90.5284 198.701H90.1504ZM90.4024 196.631C90.8104 196.631 91.1464 196.547 91.4104 196.379C91.6864 196.199 91.8904 195.953 92.0224 195.641C92.1664 195.317 92.2384 194.945 92.2384 194.525C92.2384 194.093 92.1664 193.721 92.0224 193.409C91.8784 193.097 91.6684 192.857 91.3924 192.689C91.1164 192.521 90.7864 192.437 90.4024 192.437C90.0064 192.437 89.6704 192.521 89.3944 192.689C89.1184 192.857 88.9084 193.097 88.7644 193.409C88.6204 193.721 88.5484 194.087 88.5484 194.507C88.5484 194.951 88.6204 195.335 88.7644 195.659C88.9084 195.971 89.1184 196.211 89.3944 196.379C89.6824 196.547 90.0184 196.631 90.4024 196.631ZM96.6706 198.521V197.891C96.6706 197.171 96.8026 196.547 97.0666 196.019C97.3306 195.479 97.7506 194.999 98.3266 194.579L101.801 192.023C102.173 191.747 102.461 191.435 102.665 191.087C102.869 190.727 102.971 190.337 102.971 189.917C102.971 189.401 102.821 188.999 102.521 188.711C102.221 188.411 101.765 188.261 101.153 188.261C100.793 188.261 100.475 188.339 100.199 188.495C99.9226 188.639 99.7006 188.849 99.5326 189.125C99.3766 189.389 99.2986 189.689 99.2986 190.025C99.2986 190.109 99.2986 190.193 99.2986 190.277C99.2986 190.349 99.3046 190.421 99.3166 190.493H96.7426C96.7426 190.433 96.7426 190.379 96.7426 190.331C96.7426 190.271 96.7426 190.217 96.7426 190.169C96.7426 189.365 96.9226 188.651 97.2826 188.027C97.6546 187.403 98.1706 186.911 98.8306 186.551C99.5026 186.179 100.295 185.993 101.207 185.993H101.621C102.497 185.993 103.247 186.155 103.871 186.479C104.507 186.803 104.993 187.253 105.329 187.829C105.677 188.405 105.851 189.077 105.851 189.845C105.851 190.457 105.743 190.997 105.527 191.465C105.323 191.933 105.023 192.359 104.627 192.743C104.243 193.127 103.793 193.499 103.277 193.859L101.027 195.443C100.943 195.503 100.853 195.569 100.757 195.641C100.673 195.713 100.595 195.791 100.523 195.875C100.463 195.947 100.409 196.019 100.361 196.091H105.887V198.521H96.6706Z" fill="#060C3C"/>
<rect x="58" y="366.854" width="355" height="46" rx="6" fill="#8CE9F9"/>
<rect x="57.6445" y="277.149" width="177.596" height="16.3934" rx="6" fill="#B4B6C4"/>
<rect x="57.6445" y="315.401" width="177.596" height="16.3934" rx="6" fill="#B4B6C4"/>
<g filter="url(#filter0_d_0_448)">
<rect x="196.989" y="14.8545" width="136.612" height="136.612" rx="6" fill="white"/>
</g>
<g clip-path="url(#clip0_0_448)">
<path d="M266 111.647C283.259 111.647 297.25 97.6554 297.25 80.3962C297.25 63.1369 283.259 49.1455 266 49.1455C248.74 49.1455 234.749 63.1369 234.749 80.3962C234.749 97.6554 248.74 111.647 266 111.647Z" fill="#F7B239"/>
<path d="M266 100.966C277.361 100.966 286.57 91.7565 286.57 80.3961C286.57 69.0358 277.361 59.8264 266 59.8264C254.64 59.8264 245.431 69.0358 245.431 80.3961C245.431 91.7565 254.64 100.966 266 100.966Z" fill="#E09B2D"/>
<path d="M294.117 113.665C294.181 113.904 294.212 114.145 294.212 114.381C294.212 115.603 293.397 116.719 292.162 117.05C290.688 117.446 289.171 116.57 288.776 115.096L284.131 97.7597C283.736 96.2856 284.611 94.7689 286.085 94.3738C287.561 93.9787 289.076 94.8542 289.471 96.33L294.117 113.665Z" fill="#F24C8F"/>
<path d="M242.454 98.0978L244.829 98.7343L251.099 75.3317L248.724 74.6952L242.454 98.0978Z" fill="#CCCCCC"/>
<path d="M281.49 81.9536L284.899 94.686L287.275 94.0498L283.865 81.3173L281.49 81.9536Z" fill="#CCCCCC"/>
<path d="M254.373 58.373C258.303 59.4256 260.092 65.4892 258.37 71.9135C256.649 78.3393 252.761 80.1085 248.831 79.0559C244.902 78.0032 242.42 74.5271 244.141 68.1012C245.863 61.6754 250.444 57.3203 254.373 58.373Z" fill="#E6E6E6"/>
<path d="M244.727 94.3737C246.202 94.7688 247.076 96.2855 246.681 97.7596L242.038 115.096C241.706 116.331 240.59 117.145 239.368 117.145C239.132 117.145 238.891 117.114 238.652 117.05C237.176 116.655 236.3 115.139 236.695 113.664L241.341 96.3298C241.736 94.8541 243.253 93.9784 244.727 94.3737Z" fill="#F24C8F"/>
<path d="M287.53 74.7389L283.6 60.0698C283.445 59.4915 282.843 59.1518 282.264 59.3247C281.705 59.4922 281.401 60.1006 281.552 60.6648L284.686 72.3575C284.92 73.2319 284.402 74.1308 283.527 74.3652L283.526 74.3655C282.651 74.6001 281.752 74.081 281.517 73.2064L278.372 61.4698C278.217 60.8911 277.615 60.5515 277.037 60.7248C276.477 60.8926 276.174 61.5008 276.325 62.0649L279.459 73.7586C279.693 74.6332 279.174 75.5321 278.299 75.7666C277.425 76.0009 276.526 75.482 276.291 74.6074L273.147 62.8701C272.992 62.2916 272.39 61.9521 271.811 62.1251C271.252 62.2925 270.948 62.9008 271.099 63.465L275.018 78.0899C275.465 79.7616 276.536 81.1587 278.035 82.0239C279.033 82.6004 280.141 82.8947 281.263 82.8947C281.826 82.8947 282.393 82.8206 282.951 82.671C285.777 81.9135 287.751 79.3426 287.751 76.4193C287.751 75.8502 287.677 75.284 287.53 74.7389Z" fill="#E6E6E6"/>
</g>
<g filter="url(#filter1_d_0_448)">
<rect x="257.379" y="201.052" width="54.7445" height="54.7445" rx="6" fill="#FFEEEE"/>
</g>
<path d="M296.812 223.796C296.812 234.127 285 244.458 285 244.458C285 244.458 273.188 234.127 273.188 223.796C273.188 220.663 274.432 217.658 276.647 215.443C278.863 213.228 281.867 211.983 285 211.983C288.133 211.983 291.137 213.228 293.353 215.443C295.568 217.658 296.812 220.663 296.812 223.796Z" fill="#FA4B4B"/>
<path d="M278.039 236.557C280.068 239.434 282.402 242.083 285 244.458C285 244.458 294.9 235.795 296.569 226.402C291.988 231.487 285.285 235.177 278.039 236.557Z" fill="#DC3C46"/>
<path d="M285 233.208C290.281 233.208 294.562 228.927 294.562 223.646C294.562 218.364 290.281 214.083 285 214.083C279.719 214.083 275.438 218.364 275.438 223.646C275.438 228.927 279.719 233.208 285 233.208Z" fill="#EEEEEE"/>
<path d="M283.875 222.521C283.875 222.626 283.875 222.735 283.548 222.899L282.75 223.298V218.021H281.625V223.298L280.827 222.899C280.5 222.735 280.5 222.626 280.5 222.521V218.021H279.375V222.521C279.38 222.819 279.472 223.11 279.641 223.356C279.81 223.602 280.047 223.793 280.324 223.905L281.42 224.453C281.486 224.482 281.555 224.507 281.625 224.527V230.396H282.75V224.527C282.82 224.507 282.889 224.482 282.955 224.453L284.05 223.905C284.327 223.793 284.565 223.602 284.734 223.356C284.903 223.11 284.995 222.819 285 222.521V218.021H283.875V222.521Z" fill="#AD2A37"/>
<path d="M291.75 221.396C291.75 219.534 290.49 218.021 288.938 218.021C287.385 218.021 286.125 219.534 286.125 221.396C286.125 223.027 287.092 224.389 288.375 224.702V230.396H289.5V224.702C290.783 224.389 291.75 223.027 291.75 221.396Z" fill="#AD2A37"/>
<g filter="url(#filter2_d_0_448)">
<rect x="360.924" y="58.5693" width="95.6284" height="95.6284" rx="6" fill="white"/>
</g>
<g clip-path="url(#clip1_0_448)">
<path d="M410 132.146C423.255 132.146 434 121.4 434 108.146C434 94.8907 423.255 84.1455 410 84.1455C396.745 84.1455 386 94.8907 386 108.146C386 121.4 396.745 132.146 410 132.146Z" fill="#FFA037"/>
<path d="M410 124.431C418.994 124.431 426.285 117.14 426.285 108.146C426.285 99.1512 418.994 91.8599 410 91.8599C401.005 91.8599 393.714 99.1512 393.714 108.146C393.714 117.14 401.005 124.431 410 124.431Z" fill="#FFC850"/>
<path d="M397.143 108.146C397.143 96.8095 405.005 87.3158 415.571 84.8027C413.783 84.3773 411.919 84.1455 410 84.1455C396.745 84.1455 386 94.8907 386 108.146C386 121.4 396.745 132.146 410 132.146C411.919 132.146 413.783 131.914 415.571 131.488C405.005 128.975 397.143 119.481 397.143 108.146Z" fill="#FF8C32"/>
<path d="M401.644 122.105C398.82 118.171 397.142 113.359 397.142 108.146C397.142 102.932 398.82 98.12 401.644 94.1857C396.899 97.0319 393.714 102.21 393.714 108.146C393.714 114.081 396.899 119.259 401.644 122.105Z" fill="#FFB23C"/>
<path d="M426.363 97.7828C426.028 97.448 425.485 97.448 425.151 97.7828L420.257 102.676C419.899 103.034 419.317 103.034 418.958 102.676L418.838 102.555C418.479 102.197 418.479 101.615 418.838 101.256L423.716 96.3779C424.051 96.0431 424.051 95.5007 423.716 95.1659C423.382 94.8311 422.839 94.8311 422.504 95.1659L417.626 100.044C417.267 100.403 416.686 100.403 416.327 100.044C415.968 99.6855 415.968 99.1037 416.327 98.7451L421.22 93.8522C421.555 93.5175 421.555 92.975 421.22 92.6402C420.885 92.3055 420.342 92.3055 420.008 92.6402L414.78 97.8672C413.969 98.6778 413.49 99.7099 413.466 100.709L413.44 102.942C413.438 103.178 413.338 103.403 413.164 103.563L397.003 118.435C396.051 119.386 396.051 120.928 397.003 121.88C397.954 122.831 399.496 122.831 400.448 121.88L415.294 105.747C415.458 105.569 415.689 105.468 415.931 105.47L418.222 105.488C418.24 105.488 418.257 105.488 418.274 105.488C419.288 105.488 420.328 105.029 421.135 104.222L426.363 98.995C426.697 98.6601 426.697 98.1176 426.363 97.7828Z" fill="white"/>
<path d="M411.283 105.293L404.452 111.579L405.98 113.107C406.449 113.576 407.027 113.889 407.653 114.05L413.589 107.599L411.283 105.293Z" fill="#FAF0C3"/>
<path d="M398.264 94.6986L422.07 118.505C423.021 119.456 423.021 120.999 422.07 121.95C421.119 122.901 419.576 122.901 418.625 121.95L412.845 116.17C412.253 115.578 412.121 114.7 412.45 113.981C412.623 113.602 412.595 113.164 412.3 112.869L411.326 111.895C410.945 111.514 410.328 111.514 409.948 111.895C409.187 112.656 407.953 112.656 407.192 111.895L400.614 105.317C395.731 100.434 396.191 96.7162 396.866 94.9747C397.086 94.4054 397.832 94.2669 398.264 94.6986Z" fill="white"/>
</g>
<g filter="url(#filter3_d_0_448)">
<rect x="402.525" y="223.854" width="63.8686" height="63.8686" rx="6" fill="white"/>
</g>
<path d="M421.625 249.958H420.5C419.257 249.958 418.25 250.965 418.25 252.208V255.583H423.875V252.208C423.875 250.965 422.868 249.958 421.625 249.958Z" fill="#BE5000"/>
<path d="M421.625 251.083H420.5C419.879 251.083 419.375 251.587 419.375 252.208V255.583H422.75V252.208C422.75 251.587 422.246 251.083 421.625 251.083Z" fill="#DC6E1E"/>
<path d="M425.562 252.208H427.812C428.123 252.208 428.375 252.46 428.375 252.771V255.583H425V252.771C425 252.46 425.252 252.208 425.562 252.208Z" fill="#4B8C41"/>
<path d="M427.812 251.083H430.062C430.373 251.083 430.625 251.335 430.625 251.646V255.583H427.25V251.646C427.25 251.335 427.502 251.083 427.812 251.083Z" fill="#91B945"/>
<path d="M446.375 258.958C448.239 258.958 449.75 257.447 449.75 255.583C449.75 253.719 448.239 252.208 446.375 252.208C444.511 252.208 443 253.719 443 255.583C443 257.447 444.511 258.958 446.375 258.958Z" fill="#D7E6E6"/>
<path d="M425.844 255.583C425.844 255.219 426.335 254.781 426.228 254.453C426.118 254.112 425.46 254.048 425.253 253.765C425.045 253.478 425.186 252.833 424.899 252.625C424.616 252.419 424.047 252.75 423.706 252.64C423.378 252.533 423.114 251.927 422.75 251.927C422.386 251.927 422.122 252.533 421.794 252.64C421.453 252.75 420.884 252.419 420.601 252.625C420.314 252.833 420.455 253.478 420.247 253.765C420.041 254.048 419.382 254.112 419.272 254.453C419.165 254.781 419.656 255.219 419.656 255.583C419.656 255.947 419.165 256.385 419.272 256.713C419.382 257.054 420.041 257.118 420.247 257.401C420.455 257.688 420.314 258.333 420.601 258.541C420.884 258.747 421.453 258.416 421.794 258.526C422.122 258.633 422.386 259.239 422.75 259.239C423.114 259.239 423.378 258.633 423.706 258.526C424.047 258.416 424.616 258.747 424.899 258.541C425.186 258.333 425.045 257.688 425.253 257.401C425.46 257.118 426.118 257.054 426.228 256.713C426.335 256.385 425.844 255.947 425.844 255.583Z" fill="#D7E6E6"/>
<path d="M422.75 258.114C421.354 258.114 420.219 256.979 420.219 255.583C420.219 254.187 421.354 253.052 422.75 253.052C424.146 253.052 425.281 254.187 425.281 255.583C425.281 256.979 424.146 258.114 422.75 258.114ZM422.75 253.614C421.664 253.614 420.781 254.497 420.781 255.583C420.781 256.669 421.664 257.552 422.75 257.552C423.836 257.552 424.719 256.669 424.719 255.583C424.719 254.497 423.836 253.614 422.75 253.614Z" fill="#FF8773"/>
<path d="M422.75 256.802C422.078 256.802 421.531 256.255 421.531 255.583C421.531 254.911 422.078 254.364 422.75 254.364C423.422 254.364 423.969 254.911 423.969 255.583C423.969 256.255 423.422 256.802 422.75 256.802ZM422.75 254.927C422.388 254.927 422.094 255.221 422.094 255.583C422.094 255.945 422.388 256.239 422.75 256.239C423.112 256.239 423.406 255.945 423.406 255.583C423.406 255.221 423.112 254.927 422.75 254.927Z" fill="#FF8773"/>
<path d="M446.375 257.271C447.307 257.271 448.062 256.515 448.062 255.583C448.062 254.651 447.307 253.896 446.375 253.896C445.443 253.896 444.688 254.651 444.688 255.583C444.688 256.515 445.443 257.271 446.375 257.271Z" fill="#FABE19"/>
<path d="M441.312 258.958C443.176 258.958 444.688 257.447 444.688 255.583C444.688 253.719 443.176 252.208 441.312 252.208C439.449 252.208 437.938 253.719 437.938 255.583C437.938 257.447 439.449 258.958 441.312 258.958Z" fill="#D7E6E6"/>
<path d="M441.312 257.271C442.244 257.271 443 256.515 443 255.583C443 254.651 442.244 253.896 441.312 253.896C440.381 253.896 439.625 254.651 439.625 255.583C439.625 256.515 440.381 257.271 441.312 257.271Z" fill="#FABE19"/>
<path d="M427.812 242.083H450.875V240.958H427.812C427.502 240.958 427.25 241.21 427.25 241.521C427.25 241.831 427.502 242.083 427.812 242.083Z" fill="#D7322D"/>
<path d="M427.812 244.333H450.875V243.208H427.812C427.502 243.208 427.25 243.46 427.25 243.771C427.25 244.081 427.502 244.333 427.812 244.333Z" fill="#D7322D"/>
<path d="M427.25 241.521H450.875V240.958H427.812C427.502 240.958 427.25 241.21 427.25 241.521Z" fill="#F04B37"/>
<path d="M427.25 243.771H450.875V243.208H427.812C427.502 243.208 427.25 243.46 427.25 243.771Z" fill="#F04B37"/>
<path d="M430.625 256.427C430.159 256.427 429.781 256.049 429.781 255.583C429.781 254.621 430.226 254.109 430.551 253.736C430.795 253.455 430.906 253.327 430.906 252.995C430.906 252.664 430.795 252.536 430.551 252.255C430.226 251.882 429.781 251.37 429.781 250.408C429.781 249.445 430.226 248.934 430.551 248.56C430.795 248.28 430.906 248.152 430.906 247.82C430.906 247.489 430.795 247.361 430.551 247.08C430.226 246.707 429.781 246.195 429.781 245.233C429.781 244.27 430.226 243.759 430.551 243.385C430.795 243.105 430.906 242.977 430.906 242.646C430.906 242.18 431.284 241.802 431.75 241.802C432.216 241.802 432.594 242.18 432.594 242.646C432.594 243.608 432.149 244.119 431.824 244.493C431.58 244.773 431.469 244.901 431.469 245.233C431.469 245.564 431.58 245.692 431.824 245.973C432.149 246.346 432.594 246.858 432.594 247.82C432.594 248.783 432.149 249.294 431.824 249.667C431.58 249.948 431.469 250.076 431.469 250.407C431.469 250.739 431.58 250.867 431.824 251.148C432.149 251.521 432.594 252.033 432.594 252.995C432.594 253.958 432.149 254.469 431.824 254.843C431.58 255.124 431.469 255.252 431.469 255.583C431.469 256.049 431.091 256.427 430.625 256.427Z" fill="#F5871E"/>
<path d="M428.938 256.427C428.472 256.427 428.094 256.049 428.094 255.583C428.094 254.621 428.539 254.109 428.863 253.736C429.107 253.455 429.219 253.327 429.219 252.995C429.219 252.664 429.107 252.536 428.863 252.255C428.539 251.882 428.094 251.37 428.094 250.408C428.094 249.445 428.539 248.934 428.863 248.56C429.107 248.28 429.219 248.152 429.219 247.82C429.219 247.489 429.107 247.361 428.863 247.08C428.539 246.707 428.094 246.195 428.094 245.233C428.094 244.27 428.539 243.759 428.863 243.385C429.107 243.105 429.219 242.977 429.219 242.646C429.219 242.18 429.597 241.802 430.062 241.802C430.528 241.802 430.906 242.18 430.906 242.646C430.906 243.608 430.461 244.119 430.137 244.493C429.893 244.773 429.781 244.901 429.781 245.233C429.781 245.564 429.893 245.692 430.137 245.973C430.462 246.346 430.906 246.858 430.906 247.82C430.906 248.783 430.461 249.294 430.137 249.667C429.893 249.948 429.781 250.076 429.781 250.407C429.781 250.739 429.893 250.867 430.137 251.148C430.462 251.521 430.906 252.033 430.906 252.995C430.906 253.958 430.461 254.469 430.137 254.843C429.893 255.124 429.781 255.252 429.781 255.583C429.781 256.049 429.403 256.427 428.938 256.427Z" fill="#FABE19"/>
<path d="M434 256.427C433.534 256.427 433.156 256.049 433.156 255.583C433.156 254.621 433.601 254.109 433.926 253.736C434.17 253.455 434.281 253.327 434.281 252.995C434.281 252.664 434.17 252.536 433.926 252.255C433.601 251.882 433.156 251.37 433.156 250.408C433.156 249.445 433.601 248.934 433.926 248.56C434.17 248.28 434.281 248.152 434.281 247.82C434.281 247.489 434.17 247.361 433.926 247.08C433.601 246.707 433.156 246.195 433.156 245.233C433.156 244.27 433.601 243.759 433.926 243.385C434.17 243.105 434.281 242.977 434.281 242.646C434.281 242.18 434.659 241.802 435.125 241.802C435.591 241.802 435.969 242.18 435.969 242.646C435.969 243.608 435.524 244.119 435.199 244.493C434.955 244.773 434.844 244.901 434.844 245.233C434.844 245.564 434.955 245.692 435.199 245.973C435.524 246.346 435.969 246.858 435.969 247.82C435.969 248.783 435.524 249.294 435.199 249.667C434.955 249.948 434.844 250.076 434.844 250.407C434.844 250.739 434.955 250.867 435.199 251.148C435.524 251.521 435.969 252.033 435.969 252.995C435.969 253.958 435.524 254.469 435.199 254.843C434.955 255.124 434.844 255.252 434.844 255.583C434.844 256.049 434.466 256.427 434 256.427Z" fill="#F5871E"/>
<path d="M432.312 256.427C431.847 256.427 431.469 256.049 431.469 255.583C431.469 254.621 431.914 254.109 432.238 253.736C432.482 253.455 432.594 253.327 432.594 252.995C432.594 252.664 432.482 252.536 432.238 252.255C431.914 251.882 431.469 251.37 431.469 250.408C431.469 249.445 431.914 248.934 432.238 248.56C432.482 248.28 432.594 248.152 432.594 247.82C432.594 247.489 432.482 247.361 432.238 247.08C431.914 246.707 431.469 246.195 431.469 245.233C431.469 244.27 431.914 243.759 432.238 243.385C432.482 243.105 432.594 242.977 432.594 242.646C432.594 242.18 432.972 241.802 433.438 241.802C433.903 241.802 434.281 242.18 434.281 242.646C434.281 243.608 433.836 244.119 433.512 244.493C433.268 244.773 433.156 244.901 433.156 245.233C433.156 245.564 433.268 245.692 433.512 245.973C433.837 246.346 434.281 246.858 434.281 247.82C434.281 248.783 433.836 249.294 433.512 249.667C433.268 249.948 433.156 250.076 433.156 250.407C433.156 250.739 433.268 250.867 433.512 251.148C433.837 251.521 434.281 252.033 434.281 252.995C434.281 253.958 433.836 254.469 433.512 254.843C433.268 255.124 433.156 255.252 433.156 255.583C433.156 256.049 432.778 256.427 432.312 256.427Z" fill="#FABE19"/>
<path d="M437.375 256.427C436.909 256.427 436.531 256.049 436.531 255.583C436.531 254.621 436.976 254.109 437.301 253.736C437.545 253.455 437.656 253.327 437.656 252.995C437.656 252.664 437.545 252.536 437.301 252.255C436.976 251.882 436.531 251.37 436.531 250.408C436.531 249.445 436.976 248.934 437.301 248.56C437.545 248.28 437.656 248.152 437.656 247.82C437.656 247.489 437.545 247.361 437.301 247.08C436.976 246.707 436.531 246.195 436.531 245.233C436.531 244.27 436.976 243.759 437.301 243.385C437.545 243.105 437.656 242.977 437.656 242.646C437.656 242.18 438.034 241.802 438.5 241.802C438.966 241.802 439.344 242.18 439.344 242.646C439.344 243.608 438.899 244.119 438.574 244.493C438.33 244.773 438.219 244.901 438.219 245.233C438.219 245.564 438.33 245.692 438.574 245.973C438.899 246.346 439.344 246.858 439.344 247.82C439.344 248.783 438.899 249.294 438.574 249.667C438.33 249.948 438.219 250.076 438.219 250.407C438.219 250.739 438.33 250.867 438.574 251.148C438.899 251.521 439.344 252.033 439.344 252.995C439.344 253.958 438.899 254.469 438.574 254.843C438.33 255.124 438.219 255.252 438.219 255.583C438.219 256.049 437.841 256.427 437.375 256.427Z" fill="#F5871E"/>
<path d="M435.688 256.427C435.222 256.427 434.844 256.049 434.844 255.583C434.844 254.621 435.288 254.109 435.613 253.736C435.857 253.455 435.969 253.327 435.969 252.995C435.969 252.664 435.857 252.536 435.613 252.255C435.288 251.882 434.844 251.37 434.844 250.408C434.844 249.445 435.289 248.934 435.613 248.56C435.857 248.28 435.969 248.152 435.969 247.82C435.969 247.489 435.857 247.361 435.613 247.08C435.289 246.707 434.844 246.195 434.844 245.233C434.844 244.27 435.289 243.759 435.613 243.385C435.857 243.105 435.969 242.977 435.969 242.646C435.969 242.18 436.347 241.802 436.812 241.802C437.278 241.802 437.656 242.18 437.656 242.646C437.656 243.608 437.211 244.119 436.887 244.493C436.643 244.773 436.531 244.901 436.531 245.233C436.531 245.564 436.643 245.692 436.887 245.973C437.211 246.346 437.656 246.858 437.656 247.82C437.656 248.783 437.211 249.294 436.887 249.667C436.643 249.948 436.531 250.076 436.531 250.407C436.531 250.739 436.643 250.867 436.887 251.148C437.212 251.521 437.656 252.033 437.656 252.995C437.656 253.958 437.212 254.469 436.887 254.843C436.643 255.124 436.531 255.252 436.531 255.583C436.531 256.049 436.153 256.427 435.688 256.427Z" fill="#FABE19"/>
<path d="M439.625 269.083H428.375C422.162 269.083 417.125 264.046 417.125 257.833V256.708C417.125 256.087 417.629 255.583 418.25 255.583H449.75C450.371 255.583 450.875 256.087 450.875 256.708V257.833C450.875 264.046 445.838 269.083 439.625 269.083Z" fill="#F04B37"/>
<path d="M428.375 267.958C422.792 267.958 418.25 263.416 418.25 257.833V257.271C418.25 256.96 418.502 256.708 418.812 256.708C419.123 256.708 419.375 256.96 419.375 257.271V257.833C419.375 262.796 423.412 266.833 428.375 266.833C428.686 266.833 428.938 267.085 428.938 267.396C428.938 267.706 428.686 267.958 428.375 267.958Z" fill="#FF6955"/>
<path d="M449.75 255.583H438.5C439.121 255.583 439.625 256.087 439.625 256.708V257.833C439.625 264.046 434.588 269.083 428.375 269.083H439.625C445.838 269.083 450.875 264.046 450.875 257.833V256.708C450.875 256.087 450.371 255.583 449.75 255.583Z" fill="#D7322D"/>
<path d="M438.5 271.333H429.5C428.879 271.333 428.375 270.829 428.375 270.208V269.083H439.625V270.208C439.625 270.829 439.121 271.333 438.5 271.333Z" fill="#D7322D"/>
<g filter="url(#filter4_d_0_448)">
<rect x="20" y="130.854" width="178.832" height="103.102" rx="6" fill="white"/>
</g>
<line opacity="0.3" x1="34.1865" y1="218.858" x2="182.822" y2="218.858" stroke="#B4B6C4" stroke-linecap="round"/>
<line opacity="0.2" x1="34.1865" y1="200.382" x2="182.822" y2="200.382" stroke="#B4B6C4" stroke-linecap="round"/>
<line opacity="0.2" x1="34.1865" y1="181.906" x2="182.822" y2="181.906" stroke="#B4B6C4" stroke-linecap="round"/>
<line opacity="0.2" x1="34.1865" y1="163.429" x2="182.822" y2="163.429" stroke="#B4B6C4" stroke-linecap="round"/>
<line opacity="0.2" x1="34.1865" y1="144.953" x2="182.822" y2="144.953" stroke="#B4B6C4" stroke-linecap="round"/>
<path opacity="0.4" d="M54.4166 203.472C48.5728 203.472 39.2142 204.137 34.5985 219.358H183.321V145.453C177.716 145.453 167.441 163.302 161.49 163.302C156.007 163.302 151.626 170.905 149.379 170.905C147.346 170.905 143.556 164.625 142.031 164.625C140.507 164.625 140.867 181.37 137.818 181.37C135.785 181.37 133.393 170.905 130.09 170.905C126.787 170.905 124.355 183.478 121.578 183.478C114.21 183.478 114.845 197.946 110.018 197.946C105.952 197.946 108.535 175.153 103.962 175.153C98.1182 175.153 99.3462 159.997 95.535 159.997C90.7075 159.997 95.8747 183.478 87.9974 183.478C81.6454 183.478 80.129 191.687 76.712 191.73C73.295 191.773 68.6027 183.478 65.5537 183.478C60.9803 183.478 59.4982 203.472 54.4166 203.472Z" fill="url(#paint1_linear_0_448)"/>
<path d="M35.5109 219.358C40.1266 204.137 49.4852 203.472 55.3291 203.472C60.4106 203.472 61.8927 183.478 66.4661 183.478C69.5151 183.478 74.2075 191.773 77.6244 191.73C81.0414 191.687 82.5578 183.478 88.9098 183.478C96.7871 183.478 91.6199 159.997 96.4474 159.997C100.259 159.997 99.0306 175.153 104.874 175.153C109.448 175.153 106.865 197.946 110.93 197.946C115.757 197.946 115.122 183.478 122.49 183.478C125.267 183.478 127.699 170.905 131.002 170.905C134.305 170.905 136.698 181.37 138.73 181.37C141.779 181.37 141.419 164.625 142.944 164.625C144.468 164.625 148.258 170.905 150.291 170.905C152.538 170.905 156.919 163.302 162.402 163.302C168.353 163.302 177.716 145.453 183.321 145.453" stroke="#66CFE0" stroke-width="2" stroke-linecap="round" stroke-linejoin="round"/>
<ellipse cx="82.0442" cy="188.336" rx="3.64963" ry="3.64964" fill="#66CFE0"/>
<path d="M82.6836 180.504C82.3127 180.813 81.7741 180.813 81.4032 180.503L75.3382 175.449C73.9012 174.252 74.748 171.913 76.6186 171.913L87.4682 171.913C89.3388 171.913 90.1856 174.252 88.7486 175.449L82.6836 180.504Z" fill="#00AFCC"/>
<rect x="50.1095" y="146.365" width="63.8686" height="31.0219" rx="4" fill="#00AFCC"/>
<rect opacity="0.4" x="57.4083" y="168.263" width="25.5474" height="2.73723" rx="1.36861" fill="white"/>
<path d="M74.5189 162.789L79.8455 154.026H80.7524L75.4386 162.789H74.5189ZM75.0681 158.497C74.7701 158.497 74.5061 158.429 74.2762 158.293C74.0462 158.148 73.8631 157.956 73.7269 157.718C73.5991 157.479 73.5353 157.22 73.5353 156.939V155.572C73.5353 155.291 73.5991 155.035 73.7269 154.805C73.8631 154.567 74.0462 154.38 74.2762 154.243C74.5061 154.099 74.7701 154.026 75.0681 154.026H75.1831C75.4982 154.026 75.7664 154.099 75.9878 154.243C76.2178 154.38 76.3966 154.567 76.5243 154.805C76.6606 155.035 76.7287 155.291 76.7287 155.572V156.939C76.7287 157.22 76.6606 157.479 76.5243 157.718C76.3966 157.956 76.2178 158.148 75.9878 158.293C75.7664 158.429 75.5024 158.497 75.1959 158.497H75.0681ZM75.132 157.794C75.379 157.794 75.5663 157.722 75.694 157.577C75.8218 157.432 75.8856 157.249 75.8856 157.028V155.482C75.8856 155.269 75.8218 155.091 75.694 154.946C75.5663 154.801 75.379 154.729 75.132 154.729C74.9021 154.729 74.719 154.801 74.5827 154.946C74.4465 155.091 74.3783 155.269 74.3783 155.482V157.028C74.3783 157.249 74.4465 157.432 74.5827 157.577C74.719 157.722 74.9021 157.794 75.132 157.794ZM80.0499 162.802C79.7518 162.802 79.4878 162.734 79.2579 162.597C79.028 162.453 78.8449 162.261 78.7086 162.022C78.5809 161.784 78.517 161.524 78.517 161.243V159.876C78.517 159.595 78.5809 159.34 78.7086 159.11C78.8449 158.872 79.028 158.684 79.2579 158.548C79.4878 158.403 79.7518 158.331 80.0499 158.331H80.1648C80.4799 158.331 80.7482 158.403 80.9696 158.548C81.1995 158.684 81.3783 158.872 81.5061 159.11C81.6423 159.34 81.7105 159.595 81.7105 159.876V161.243C81.7105 161.524 81.6423 161.784 81.5061 162.022C81.3783 162.261 81.1995 162.453 80.9696 162.597C80.7482 162.734 80.4842 162.802 80.1776 162.802H80.0499ZM80.1137 162.099C80.3607 162.099 80.5481 162.027 80.6758 161.882C80.8035 161.729 80.8674 161.546 80.8674 161.333V159.787C80.8674 159.574 80.8035 159.395 80.6758 159.251C80.5481 159.106 80.3607 159.033 80.1137 159.033C79.8838 159.033 79.7007 159.106 79.5645 159.251C79.4282 159.395 79.3601 159.574 79.3601 159.787V161.333C79.3601 161.546 79.4282 161.729 79.5645 161.882C79.7007 162.027 79.8838 162.099 80.1137 162.099Z" fill="white"/>
<path d="M69.0738 162.917C68.5288 162.917 68.0349 162.793 67.5921 162.546C67.1492 162.291 66.7958 161.942 66.5318 161.499C66.2764 161.056 66.1486 160.545 66.1486 159.966V156.849C66.1486 156.27 66.2764 155.759 66.5318 155.316C66.7958 154.873 67.1492 154.528 67.5921 154.282C68.0349 154.026 68.5288 153.898 69.0738 153.898H69.3165C69.87 153.898 70.3639 154.026 70.7983 154.282C71.2411 154.528 71.5902 154.873 71.8457 155.316C72.1012 155.759 72.2289 156.27 72.2289 156.849V159.966C72.2289 160.545 72.1012 161.056 71.8457 161.499C71.5902 161.942 71.2411 162.291 70.7983 162.546C70.3639 162.793 69.87 162.917 69.3165 162.917H69.0738ZM69.1888 161.895C69.5209 161.895 69.8189 161.818 70.0829 161.665C70.3469 161.503 70.5513 161.29 70.6961 161.026C70.8494 160.762 70.926 160.464 70.926 160.132V156.683C70.926 156.342 70.8494 156.04 70.6961 155.776C70.5513 155.512 70.3469 155.303 70.0829 155.15C69.8189 154.997 69.5209 154.92 69.1888 154.92C68.8567 154.92 68.5586 154.997 68.2946 155.15C68.0391 155.303 67.8348 155.512 67.6815 155.776C67.5282 156.04 67.4515 156.342 67.4515 156.683V160.132C67.4515 160.464 67.5282 160.762 67.6815 161.026C67.8348 161.29 68.0391 161.503 68.2946 161.665C68.5586 161.818 68.8567 161.895 69.1888 161.895Z" fill="white"/>
<path d="M62.173 162.789V160.553H58.0343V159.506C58.145 159.336 58.2898 159.093 58.4686 158.778C58.6474 158.463 58.839 158.101 59.0434 157.692C59.2563 157.283 59.465 156.858 59.6693 156.415C59.8737 155.963 60.0653 155.521 60.2442 155.086C60.4315 154.652 60.5848 154.256 60.704 153.898H61.9303C61.8281 154.282 61.6876 154.695 61.5088 155.137C61.3299 155.572 61.1341 156.01 60.9212 156.453C60.7168 156.887 60.4996 157.305 60.2697 157.705C60.0483 158.105 59.8354 158.463 59.631 158.778C59.4266 159.084 59.2393 159.331 59.069 159.519H62.173V156.9C62.2326 156.806 62.2965 156.687 62.3646 156.542C62.4412 156.389 62.5136 156.236 62.5817 156.083C62.6584 155.921 62.7265 155.768 62.7861 155.623C62.8543 155.469 62.9011 155.337 62.9266 155.227H63.4504V159.519H64.5617V160.553H63.4504V162.789H62.173Z" fill="white"/>
<circle cx="100.292" cy="160.964" r="6.38686" fill="white"/>
<path d="M100.76 159.361C100.519 159.103 100.064 159.103 99.8234 159.361L97.4331 161.913C97.1147 162.254 97.395 162.76 97.9016 162.76L102.682 162.76C103.189 162.76 103.469 162.254 103.151 161.913L100.76 159.361Z" fill="#38E7B2"/>
<path d="M236 293.854H295.771V325.183H391.109V366.847" stroke="#6540BF" stroke-opacity="0.39" stroke-width="2" stroke-linecap="round" stroke-linejoin="round" stroke-dasharray="4 5"/>
<path d="M193.62 41.8545H148V131.271" stroke="#66CFE0" stroke-width="2" stroke-linecap="round" stroke-linejoin="round" stroke-dasharray="4 5"/>
<path d="M397.62 233.854H352V323.271" stroke="#6540BF" stroke-opacity="0.39" stroke-width="2" stroke-linecap="round" stroke-linejoin="round" stroke-dasharray="4 5"/>
<defs>
<filter id="filter0_d_0_448" x="176.989" y="0.854492" width="176.612" height="176.612" filterUnits="userSpaceOnUse" color-interpolation-filters="sRGB">
<feFlood flood-opacity="0" result="BackgroundImageFix"/>
<feColorMatrix in="SourceAlpha" type="matrix" values="0 0 0 0 0 0 0 0 0 0 0 0 0 0 0 0 0 0 127 0" result="hardAlpha"/>
<feOffset dy="6"/>
<feGaussianBlur stdDeviation="10"/>
<feColorMatrix type="matrix" values="0 0 0 0 0.11 0 0 0 0 0.14137 0 0 0 0 0.4125 0 0 0 0.05 0"/>
<feBlend mode="normal" in2="BackgroundImageFix" result="effect1_dropShadow_0_448"/>
<feBlend mode="normal" in="SourceGraphic" in2="effect1_dropShadow_0_448" result="shape"/>
</filter>
<filter id="filter1_d_0_448" x="237.379" y="187.052" width="94.7445" height="94.7445" filterUnits="userSpaceOnUse" color-interpolation-filters="sRGB">
<feFlood flood-opacity="0" result="BackgroundImageFix"/>
<feColorMatrix in="SourceAlpha" type="matrix" values="0 0 0 0 0 0 0 0 0 0 0 0 0 0 0 0 0 0 127 0" result="hardAlpha"/>
<feOffset dy="6"/>
<feGaussianBlur stdDeviation="10"/>
<feColorMatrix type="matrix" values="0 0 0 0 0.11 0 0 0 0 0.14137 0 0 0 0 0.4125 0 0 0 0.05 0"/>
<feBlend mode="normal" in2="BackgroundImageFix" result="effect1_dropShadow_0_448"/>
<feBlend mode="normal" in="SourceGraphic" in2="effect1_dropShadow_0_448" result="shape"/>
</filter>
<filter id="filter2_d_0_448" x="340.924" y="44.5693" width="135.628" height="135.628" filterUnits="userSpaceOnUse" color-interpolation-filters="sRGB">
<feFlood flood-opacity="0" result="BackgroundImageFix"/>
<feColorMatrix in="SourceAlpha" type="matrix" values="0 0 0 0 0 0 0 0 0 0 0 0 0 0 0 0 0 0 127 0" result="hardAlpha"/>
<feOffset dy="6"/>
<feGaussianBlur stdDeviation="10"/>
<feColorMatrix type="matrix" values="0 0 0 0 0.11 0 0 0 0 0.14137 0 0 0 0 0.4125 0 0 0 0.05 0"/>
<feBlend mode="normal" in2="BackgroundImageFix" result="effect1_dropShadow_0_448"/>
<feBlend mode="normal" in="SourceGraphic" in2="effect1_dropShadow_0_448" result="shape"/>
</filter>
<filter id="filter3_d_0_448" x="382.525" y="209.854" width="103.869" height="103.869" filterUnits="userSpaceOnUse" color-interpolation-filters="sRGB">
<feFlood flood-opacity="0" result="BackgroundImageFix"/>
<feColorMatrix in="SourceAlpha" type="matrix" values="0 0 0 0 0 0 0 0 0 0 0 0 0 0 0 0 0 0 127 0" result="hardAlpha"/>
<feOffset dy="6"/>
<feGaussianBlur stdDeviation="10"/>
<feColorMatrix type="matrix" values="0 0 0 0 0.11 0 0 0 0 0.14137 0 0 0 0 0.4125 0 0 0 0.05 0"/>
<feBlend mode="normal" in2="BackgroundImageFix" result="effect1_dropShadow_0_448"/>
<feBlend mode="normal" in="SourceGraphic" in2="effect1_dropShadow_0_448" result="shape"/>
</filter>
<filter id="filter4_d_0_448" x="0" y="116.854" width="218.832" height="143.102" filterUnits="userSpaceOnUse" color-interpolation-filters="sRGB">
<feFlood flood-opacity="0" result="BackgroundImageFix"/>
<feColorMatrix in="SourceAlpha" type="matrix" values="0 0 0 0 0 0 0 0 0 0 0 0 0 0 0 0 0 0 127 0" result="hardAlpha"/>
<feOffset dy="6"/>
<feGaussianBlur stdDeviation="10"/>
<feColorMatrix type="matrix" values="0 0 0 0 0.11 0 0 0 0 0.14137 0 0 0 0 0.4125 0 0 0 0.05 0"/>
<feBlend mode="normal" in2="BackgroundImageFix" result="effect1_dropShadow_0_448"/>
<feBlend mode="normal" in="SourceGraphic" in2="effect1_dropShadow_0_448" result="shape"/>
</filter>
<linearGradient id="paint0_linear_0_448" x1="235" y1="126.854" x2="235" y2="437.854" gradientUnits="userSpaceOnUse">
<stop stop-color="white"/>
<stop offset="1" stop-color="white" stop-opacity="0.48"/>
</linearGradient>
<linearGradient id="paint1_linear_0_448" x1="108.96" y1="123.633" x2="108.96" y2="219.358" gradientUnits="userSpaceOnUse">
<stop stop-color="#00AFCC"/>
<stop offset="1" stop-color="#74F1FF" stop-opacity="0"/>
</linearGradient>
<clipPath id="clip0_0_448">
<rect width="68" height="68" fill="white" transform="translate(232 49.1455)"/>
</clipPath>
<clipPath id="clip1_0_448">
<rect width="48" height="48" fill="white" transform="translate(386 84.1455)"/>
</clipPath>
</defs>
</svg>
